<?xml version="1.0" encoding="UTF-8" standalone="no"?>
<svg
   xmlns:dc="http://purl.org/dc/elements/1.1/"
   xmlns:cc="http://creativecommons.org/ns#"
   xmlns:rdf="http://www.w3.org/1999/02/22-rdf-syntax-ns#"
   xmlns:svg="http://www.w3.org/2000/svg"
   xmlns="http://www.w3.org/2000/svg"
   xmlns:sodipodi="http://sodipodi.sourceforge.net/DTD/sodipodi-0.dtd"
   xmlns:inkscape="http://www.inkscape.org/namespaces/inkscape"
   inkscape:export-ydpi="91.074211"
   inkscape:export-xdpi="91.074211"
   inkscape:export-filename="D:\scratch\hairlineicons\halftone.png"
   height="67.179779"
   width="67.179794"
   role="img"
   viewBox="0 0 67.179795 67.179778"
   version="1.1"
   id="svg6"
   sodipodi:docname="halftone.svg"
   inkscape:version="1.0beta1 (fe3e306, 2019-09-17)">
  <metadata
     id="metadata12">
    <rdf:RDF>
      <cc:Work
         rdf:about="">
        <dc:format>image/svg+xml</dc:format>
        <dc:type
           rdf:resource="http://purl.org/dc/dcmitype/StillImage" />
        <dc:title>Facebook icon</dc:title>
      </cc:Work>
    </rdf:RDF>
  </metadata>
  <defs
     id="defs10" />
  <sodipodi:namedview
     inkscape:guide-bbox="true"
     showguides="true"
     fit-margin-bottom="0"
     fit-margin-right="0"
     fit-margin-left="0"
     fit-margin-top="0"
     pagecolor="#2b2b2b"
     bordercolor="#666666"
     inkscape:document-rotation="0"
     borderopacity="1"
     objecttolerance="10"
     gridtolerance="10"
     guidetolerance="10"
     inkscape:pageopacity="0"
     inkscape:pageshadow="2"
     inkscape:window-width="640"
     inkscape:window-height="480"
     id="namedview8"
     showgrid="false"
     inkscape:zoom="8"
     inkscape:cx="37.071726"
     inkscape:cy="20.7379"
     inkscape:current-layer="layer3"
     inkscape:snap-intersection-paths="true"
     inkscape:snap-bbox="true"
     inkscape:snap-bbox-midpoints="true"
     inkscape:snap-center="true"
     inkscape:snap-object-midpoints="true">
    <sodipodi:guide
       id="guide1034"
       orientation="1,0"
       position="17.77857,49.401177" />
  </sodipodi:namedview>
  <title
     id="title2">Facebook icon</title>
  <g
     transform="translate(-392.71591,29.924858)"
     inkscape:groupmode="layer"
     id="layer3"
     inkscape:label="Layer 3">
    <path
       id="rect4356-9"
       style="vector-effect:non-scaling-stroke;fill:#000000;fill-opacity:1;stroke:none;stroke-width:1;stroke-miterlimit:4;stroke-dasharray:none;stroke-opacity:1;stop-color:#000000"
       d="m 442.1171,-12.14624 v 3.6679684 a 1.5187499,1.5187499 0 0 0 0.12256,-0.083008 1.5187499,1.5187499 0 0 0 0.24512,0.4902342 1.5187499,1.5187499 0 0 0 -0.36768,0.1621095 v 7.3364258 a 1.5187499,1.5187499 0 0 0 0.12256,-0.083008 1.5187499,1.5187499 0 0 0 0.24512,0.4902345 1.5187499,1.5187499 0 0 0 -0.36768,0.1621095 v 7.3364257 a 1.5187499,1.5187499 0 0 0 0.12256,-0.083008 1.5187499,1.5187499 0 0 0 0.24512,0.4902345 1.5187499,1.5187499 0 0 0 -0.36768,0.1621093 v 7.3364266 a 1.5187499,1.5187499 0 0 0 0.12256,-0.08301 1.5187499,1.5187499 0 0 0 0.24512,0.490234 1.5187499,1.5187499 0 0 0 -0.36768,0.162109 v 3.667969 h 3.48584 a 1.3668749,1.3668749 0 0 0 -0.19482,-0.220215 1.3668749,1.3668749 0 0 0 1.16797,-0.928222 1.3668749,1.3668749 0 0 0 -0.37696,-1.44336 1.3668749,1.3668749 0 0 0 1.16749,-0.928711 1.3668749,1.3668749 0 0 0 -0.54688,-1.574707 1.2301874,1.2301874 0 0 0 1.20801,-0.840332 1.2301874,1.2301874 0 0 0 -0.77832,-1.555664 1.2301874,1.2301874 0 0 0 -1.39649,0.461426 1.3668749,1.3668749 0 0 0 -0.44482,-1.096191 1.3668749,1.3668749 0 0 0 1.16797,-0.928223 1.3668749,1.3668749 0 0 0 -0.37696,-1.4433596 1.3668749,1.3668749 0 0 0 1.16749,-0.928711 1.3668749,1.3668749 0 0 0 -0.54688,-1.574707 1.2301874,1.2301874 0 0 0 1.20801,-0.8398438 1.2301874,1.2301874 0 0 0 -0.77832,-1.5561523 1.2301874,1.2301874 0 0 0 -1.39648,0.4614258 1.3668749,1.3668749 0 0 0 -0.44483,-1.0961914 1.3668749,1.3668749 0 0 0 1.16797,-0.9282227 1.3668749,1.3668749 0 0 0 -0.37744,-1.4433594 1.3668749,1.3668749 0 0 0 1.16797,-0.9282227 1.3668749,1.3668749 0 0 0 -0.54688,-1.5751952 1.2301874,1.2301874 0 0 0 1.20801,-0.8398438 1.2301874,1.2301874 0 0 0 -0.77832,-1.5561523 1.2301874,1.2301874 0 0 0 -1.39648,0.4614258 1.3668749,1.3668749 0 0 0 -0.44434,-1.0957032 1.3668749,1.3668749 0 0 0 1.16748,-0.9287108 1.3668749,1.3668749 0 0 0 -0.37744,-1.4433595 1.3668749,1.3668749 0 0 0 1.16797,-0.9282225 1.3668749,1.3668749 0 0 0 -0.5459,-1.5747073 1.2301874,1.2301874 0 0 0 1.20703,-0.8403321 1.2301874,1.2301874 0 0 0 -0.77832,-1.556152 1.2301874,1.2301874 0 0 0 -1.39648,0.461914 1.3668749,1.3668749 0 0 0 -0.24903,-0.875976 z m 4.92774,0 a 0.9964518,0.9964518 0 0 0 0.29101,0.154785 0.9964518,0.9964518 0 0 0 0.92237,-0.154785 z m 2.1709,0 a 0.80712592,0.80712592 0 0 0 0.55175,0.765625 0.80712592,0.80712592 0 0 0 1.021,-0.510254 0.80712592,0.80712592 0 0 0 0.0415,-0.255371 z m 8.28369,0 a 0.42893983,0.42893983 0 0 0 0.29345,0.406738 0.42893983,0.42893983 0 0 0 0.54249,-0.270996 0.42893983,0.42893983 0 0 0 0.022,-0.135742 z m -5.10547,0.136718 a 0.653772,0.653772 0 0 0 -0.61963,0.447266 0.653772,0.653772 0 0 0 0.41357,0.82666 0.653772,0.653772 0 0 0 0.82666,-0.413086 0.653772,0.653772 0 0 0 -0.41308,-0.827148 0.653772,0.653772 0 0 0 -0.20752,-0.03369 z m 2.35351,0.915039 a 0.52955532,0.52955532 0 0 0 -0.48339,0.361817 0.52955532,0.52955532 0 0 0 0.33496,0.669922 0.52955532,0.52955532 0 0 0 0.66943,-0.334961 0.52955532,0.52955532 0 0 0 -0.33496,-0.669922 0.52955532,0.52955532 0 0 0 -0.18604,-0.02686 z m -11.58837,0.05322 a 1.3668749,1.3668749 0 0 0 0.28027,0.561035 1.5187499,1.5187499 0 0 0 -0.6543,0.282715 1.5187499,1.5187499 0 0 0 -0.24512,-0.490234 1.5187499,1.5187499 0 0 0 0.61915,-0.353516 z m 6.0581,0.27002 a 0.9964518,0.9964518 0 0 0 -0.0122,5e-4 0.9964518,0.9964518 0 0 0 -0.91797,0.681152 0.9964518,0.9964518 0 0 0 0.63037,1.2602539 0.9964518,0.9964518 0 0 0 1.26026,-0.6298827 0.9964518,0.9964518 0 0 0 -0.63037,-1.2607422 0.9964518,0.9964518 0 0 0 -0.33008,-0.05127 z m -3.58594,0.166504 a 1.2301874,1.2301874 0 0 0 0.52393,1.0473629 1.3668749,1.3668749 0 0 0 -0.96045,0.3149413 1.5187499,1.5187499 0 0 0 -0.3916,-0.7832032 1.3668749,1.3668749 0 0 0 0.82812,-0.579101 z m 11.49219,0.354003 a 0.47659978,0.47659978 0 0 0 -0.4375,0.3256842 0.47659978,0.47659978 0 0 0 0.30127,0.602539 0.47659978,0.47659978 0 0 0 0.60303,-0.3012695 0.47659978,0.47659978 0 0 0 -0.30176,-0.6030277 0.47659978,0.47659978 0 0 0 -0.16504,-0.02392 z m -5.52392,0.4594732 a 0.80712592,0.80712592 0 0 0 -0.0215,5e-4 0.80712592,0.80712592 0 0 0 -0.73975,0.5517577 0.80712592,0.80712592 0 0 0 0.51026,1.020996 0.80712592,0.80712592 0 0 0 1.02099,-0.510742 0.80712592,0.80712592 0 0 0 -0.51025,-1.0209962 0.80712592,0.80712592 0 0 0 -0.25976,-0.041504 z m 7.89844,0.4213867 a 0.38604585,0.38604585 0 0 0 -0.3545,0.2636718 0.38604585,0.38604585 0 0 0 0.24414,0.4882812 0.38604585,0.38604585 0 0 0 0.48829,-0.2441405 0.38604585,0.38604585 0 0 0 -0.24415,-0.4882812 0.38604585,0.38604585 0 0 0 -0.13378,-0.019531 z m -5.52296,0.5229493 a 0.653772,0.653772 0 0 0 -0.61963,0.4467772 0.653772,0.653772 0 0 0 0.41358,0.8271485 0.653772,0.653772 0 0 0 0.82715,-0.4135742 0.653772,0.653772 0 0 0 -0.41358,-0.8271485 0.653772,0.653772 0 0 0 -0.20752,-0.033203 z m -5.51904,0.4477537 a 0.9964518,0.9964518 0 0 0 -0.95947,0.6811523 0.9964518,0.9964518 0 0 0 0.62988,1.2607422 0.9964518,0.9964518 0 0 0 1.26074,-0.630371 0.9964518,0.9964518 0 0 0 -0.63037,-1.260254 0.9964518,0.9964518 0 0 0 -0.30078,-0.05127 z m 7.87256,0.466797 a 0.52955532,0.52955532 0 0 0 -0.4834,0.3623046 0.52955532,0.52955532 0 0 0 0.33496,0.6694337 0.52955532,0.52955532 0 0 0 0.66992,-0.3344728 0.52955532,0.52955532 0 0 0 -0.33495,-0.6699217 0.52955532,0.52955532 0 0 0 -0.15577,-0.027344 0.52955532,0.52955532 0 0 0 -0.0308,0 z m -11.58838,0.053223 a 1.3668749,1.3668749 0 0 0 0.41065,0.6967775 1.3668749,1.3668749 0 0 0 -0.74658,0.3115233 1.5187499,1.5187499 0 0 0 -0.28321,-0.6542968 1.5187499,1.5187499 0 0 0 0.61914,-0.354004 z m 6.06885,0.4594728 a 0.80712592,0.80712592 0 0 0 -0.0215,5e-4 0.80712592,0.80712592 0 0 0 -0.73975,0.5517578 0.80712592,0.80712592 0 0 0 0.51025,1.0209962 0.80712592,0.80712592 0 0 0 1.021,-0.5107422 0.80712592,0.80712592 0 0 0 -0.51026,-1.020996 0.80712592,0.80712592 0 0 0 -0.25976,-0.041504 z m 7.89746,0.3789062 a 0.42893983,0.42893983 0 0 0 -0.39404,0.2929688 0.42893983,0.42893983 0 0 0 0.27099,0.5424805 0.42893983,0.42893983 0 0 0 0.54249,-0.2714845 0.42893983,0.42893983 0 0 0 -0.271,-0.5424805 0.42893983,0.42893983 0 0 0 -0.14844,-0.021484 z m -5.52197,0.5654298 a 0.653772,0.653772 0 0 0 -0.61963,0.4467772 0.653772,0.653772 0 0 0 0.41357,0.8271485 0.653772,0.653772 0 0 0 0.82715,-0.4135742 0.653772,0.653772 0 0 0 -0.41357,-0.8271485 0.653772,0.653772 0 0 0 -0.20752,-0.033203 z m -5.51905,0.4477537 a 0.9964518,0.9964518 0 0 0 -0.95947,0.6811525 0.9964518,0.9964518 0 0 0 0.62988,1.2607421 0.9964518,0.9964518 0 0 0 1.26075,-0.6303711 0.9964518,0.9964518 0 0 0 -0.63038,-1.2602539 0.9964518,0.9964518 0 0 0 -0.30078,-0.05127 z m 7.87256,0.4672853 a 0.52955532,0.52955532 0 0 0 -0.4834,0.3618165 0.52955532,0.52955532 0 0 0 0.33496,0.6699217 0.52955532,0.52955532 0 0 0 0.66944,-0.334961 0.52955532,0.52955532 0 0 0 -0.33447,-0.6699217 0.52955532,0.52955532 0 0 0 -0.18653,-0.026855 z m -11.58838,0.053222 a 1.3668749,1.3668749 0 0 0 0.41016,0.6962892 1.3668749,1.3668749 0 0 0 -0.74658,0.3110351 1.5187499,1.5187499 0 0 0 -0.28272,-0.6538086 1.5187499,1.5187499 0 0 0 0.61914,-0.3535157 z m 6.08496,0.4594727 a 0.80712592,0.80712592 0 0 0 -0.77734,0.5517578 0.80712592,0.80712592 0 0 0 0.51025,1.0209962 0.80712592,0.80712592 0 0 0 1.021,-0.510254 0.80712592,0.80712592 0 0 0 -0.51025,-1.020996 0.80712592,0.80712592 0 0 0 -0.24366,-0.041504 z m 7.88135,0.378418 a 0.42893983,0.42893983 0 0 0 -0.39453,0.2929688 0.42893983,0.42893983 0 0 0 0.27148,0.5424805 0.42893983,0.42893983 0 0 0 0.54249,-0.270996 0.42893983,0.42893983 0 0 0 -0.271,-0.542969 0.42893983,0.42893983 0 0 0 -0.14844,-0.021484 z m -5.52197,0.5654298 a 0.653772,0.653772 0 0 0 -0.61963,0.4472655 0.653772,0.653772 0 0 0 0.41357,0.8266602 0.653772,0.653772 0 0 0 0.82666,-0.4135742 0.653772,0.653772 0 0 0 -0.41308,-0.8266602 0.653772,0.653772 0 0 0 -0.20752,-0.033691 z m 2.35351,0.915039 a 0.52955532,0.52955532 0 0 0 -0.48339,0.3618165 0.52955532,0.52955532 0 0 0 0.33496,0.6699217 0.52955532,0.52955532 0 0 0 0.66943,-0.3349609 0.52955532,0.52955532 0 0 0 -0.33496,-0.6699218 0.52955532,0.52955532 0 0 0 -0.18604,-0.026855 z m -11.58837,0.053223 a 1.3668749,1.3668749 0 0 0 0.28027,0.561035 1.5187499,1.5187499 0 0 0 -0.6543,0.282715 1.5187499,1.5187499 0 0 0 -0.24512,-0.4902345 1.5187499,1.5187499 0 0 0 0.61915,-0.3535155 z m 6.0581,0.2700195 a 0.9964518,0.9964518 0 0 0 -0.0122,5e-4 0.9964518,0.9964518 0 0 0 -0.91797,0.6811523 0.9964518,0.9964518 0 0 0 0.63037,1.260254 0.9964518,0.9964518 0 0 0 1.26026,-0.6303713 0.9964518,0.9964518 0 0 0 -0.63037,-1.2602537 0.9964518,0.9964518 0 0 0 -0.33008,-0.05127 z m -3.58594,0.1660155 a 1.2301874,1.2301874 0 0 0 0.52393,1.0478518 1.3668749,1.3668749 0 0 0 -0.96045,0.314453 1.5187499,1.5187499 0 0 0 -0.3916,-0.7827148 1.3668749,1.3668749 0 0 0 0.82812,-0.57959 z m 11.49219,0.3544923 a 0.47659978,0.47659978 0 0 0 -0.4375,0.3251952 0.47659978,0.47659978 0 0 0 0.30127,0.6030275 0.47659978,0.47659978 0 0 0 0.60303,-0.3012697 0.47659978,0.47659978 0 0 0 -0.30176,-0.6030273 0.47659978,0.47659978 0 0 0 -0.16504,-0.023926 z m -5.50781,0.4594727 a 0.80712592,0.80712592 0 0 0 -0.77734,0.5522461 0.80712592,0.80712592 0 0 0 0.51025,1.0205077 0.80712592,0.80712592 0 0 0 1.021,-0.51025375 0.80712592,0.80712592 0 0 0 -0.51026,-1.02099625 0.80712592,0.80712592 0 0 0 -0.24365,-0.041504 z m 7.88233,0.4213868 a 0.38604585,0.38604585 0 0 0 -0.3545,0.2636717 0.38604585,0.38604585 0 0 0 0.24414,0.4882813 0.38604585,0.38604585 0 0 0 0.48829,-0.2441405 0.38604585,0.38604585 0 0 0 -0.24415,-0.4882815 0.38604585,0.38604585 0 0 0 -0.13378,-0.019531 z m -5.52296,0.52246075 a 0.653772,0.653772 0 0 0 -0.61963,0.44726575 0.653772,0.653772 0 0 0 0.41358,0.82714837 0.653772,0.653772 0 0 0 0.82715,-0.41357412 0.653772,0.653772 0 0 0 -0.41358,-0.8271485 0.653772,0.653772 0 0 0 -0.20752,-0.0336915 z m -5.54834,0.447754 a 0.9964518,0.9964518 0 0 0 -0.0122,5e-4 0.9964518,0.9964518 0 0 0 -0.91796,0.68115225 0.9964518,0.9964518 0 0 0 0.62988,1.260254 0.9964518,0.9964518 0 0 0 1.26074,-0.6298828 0.9964518,0.9964518 0 0 0 -0.63037,-1.2607422 0.9964518,0.9964518 0 0 0 -0.33008,-0.0512695 z m 7.90186,0.46728525 a 0.52955532,0.52955532 0 0 0 -0.4834,0.36181627 0.52955532,0.52955532 0 0 0 0.33496,0.66992183 0.52955532,0.52955532 0 0 0 0.66992,-0.33496088 0.52955532,0.52955532 0 0 0 -0.33495,-0.66943372 0.52955532,0.52955532 0 0 0 -0.15577,-0.0273435 0.52955532,0.52955532 0 0 0 -0.0308,0 z m -11.58838,0.0532225 a 1.3668749,1.3668749 0 0 0 0.41065,0.69677737 1.3668749,1.3668749 0 0 0 -0.74658,0.31152343 1.5187499,1.5187499 0 0 0 -0.2837,-0.65478515 1.5187499,1.5187499 0 0 0 0.61963,-0.35351565 z m 6.06885,0.4594727 a 0.80712592,0.80712592 0 0 0 -0.0215,4.875e-4 0.80712592,0.80712592 0 0 0 -0.73975,0.5517578 0.80712592,0.80712592 0 0 0 0.51025,1.0209961 0.80712592,0.80712592 0 0 0 1.021,-0.5107422 0.80712592,0.80712592 0 0 0 -0.51026,-1.02099608 0.80712592,0.80712592 0 0 0 -0.25976,-0.0415039 z m 7.89746,0.37841795 a 0.42893983,0.42893983 0 0 0 -0.39404,0.29345705 0.42893983,0.42893983 0 0 0 0.27099,0.5424804 0.42893983,0.42893983 0 0 0 0.54249,-0.2714843 0.42893983,0.42893983 0 0 0 -0.271,-0.5424805 0.42893983,0.42893983 0 0 0 -0.14844,-0.0219727 z m -5.52197,0.56591795 a 0.653772,0.653772 0 0 0 -0.61963,0.4467774 0.653772,0.653772 0 0 0 0.41357,0.8271484 0.653772,0.653772 0 0 0 0.82715,-0.4135742 0.653772,0.653772 0 0 0 -0.41357,-0.8271485 0.653772,0.653772 0 0 0 -0.20752,-0.033203 z m -5.51905,0.4477539 a 0.9964518,0.9964518 0 0 0 -0.95947,0.6811524 0.9964518,0.9964518 0 0 0 0.62988,1.2607421 0.9964518,0.9964518 0 0 0 1.26075,-0.630371 0.9964518,0.9964518 0 0 0 -0.63038,-1.260254 0.9964518,0.9964518 0 0 0 -0.30078,-0.051269 z m 7.87207,0.4667969 a 0.52955532,0.52955532 0 0 0 -0.48291,0.3623047 0.52955532,0.52955532 0 0 0 0.33496,0.6699219 0.52955532,0.52955532 0 0 0 0.66944,-0.334961 0.52955532,0.52955532 0 0 0 -0.33447,-0.6699219 0.52955532,0.52955532 0 0 0 -0.15625,-0.027344 0.52955532,0.52955532 0 0 0 -0.0308,0 z m -11.58838,0.053223 a 1.3668749,1.3668749 0 0 0 0.41065,0.6967774 1.3668749,1.3668749 0 0 0 -0.74609,0.3110351 1.5187499,1.5187499 0 0 0 -0.28321,-0.6538085 1.5187499,1.5187499 0 0 0 0.61865,-0.354004 z m 6.08545,0.459961 a 0.80712592,0.80712592 0 0 0 -0.77734,0.5517578 0.80712592,0.80712592 0 0 0 0.51025,1.0209961 0.80712592,0.80712592 0 0 0 1.021,-0.5107422 0.80712592,0.80712592 0 0 0 -0.51025,-1.0205078 0.80712592,0.80712592 0 0 0 -0.24366,-0.041504 z m 7.88135,0.378418 a 0.42893983,0.42893983 0 0 0 -0.39453,0.2929687 0.42893983,0.42893983 0 0 0 0.27148,0.5424805 0.42893983,0.42893983 0 0 0 0.54249,-0.2709961 0.42893983,0.42893983 0 0 0 -0.271,-0.5429687 0.42893983,0.42893983 0 0 0 -0.14844,-0.021484 z m -5.52197,0.5654297 a 0.653772,0.653772 0 0 0 -0.61963,0.4467773 0.653772,0.653772 0 0 0 0.41357,0.8271485 0.653772,0.653772 0 0 0 0.82666,-0.4135743 0.653772,0.653772 0 0 0 -0.41308,-0.8266601 0.653772,0.653772 0 0 0 -0.20752,-0.033691 z m 2.35351,0.915039 a 0.52955532,0.52955532 0 0 0 -0.48339,0.3618164 0.52955532,0.52955532 0 0 0 0.33496,0.6699219 0.52955532,0.52955532 0 0 0 0.66943,-0.334961 0.52955532,0.52955532 0 0 0 -0.33496,-0.6699218 0.52955532,0.52955532 0 0 0 -0.18604,-0.026855 z m -11.58837,0.053223 a 1.3668749,1.3668749 0 0 0 0.28027,0.5605468 1.5187499,1.5187499 0 0 0 -0.6543,0.2832033 1.5187499,1.5187499 0 0 0 -0.24512,-0.4902345 1.5187499,1.5187499 0 0 0 0.61915,-0.3535156 z m 6.08789,0.2700195 a 0.9964518,0.9964518 0 0 0 -0.95996,0.6816406 0.9964518,0.9964518 0 0 0 0.63037,1.260254 0.9964518,0.9964518 0 0 0 1.26025,-0.6303713 0.9964518,0.9964518 0 0 0 -0.63037,-1.2602538 0.9964518,0.9964518 0 0 0 -0.30029,-0.05127 z m -3.61573,0.1660156 a 1.2301874,1.2301874 0 0 0 0.52442,1.0478515 1.3668749,1.3668749 0 0 0 -0.96094,0.3144533 1.5187499,1.5187499 0 0 0 -0.3916,-0.7827148 1.3668749,1.3668749 0 0 0 0.82812,-0.57959 z m 11.49171,0.354004 a 0.47659978,0.47659978 0 0 0 -0.43702,0.3256835 0.47659978,0.47659978 0 0 0 0.30127,0.6030275 0.47659978,0.47659978 0 0 0 0.60303,-0.3012698 0.47659978,0.47659978 0 0 0 -0.30176,-0.6030272 0.47659978,0.47659978 0 0 0 -0.16552,-0.024415 z m -5.50733,0.459961 a 0.80712592,0.80712592 0 0 0 -0.77734,0.5517577 0.80712592,0.80712592 0 0 0 0.51025,1.020996 0.80712592,0.80712592 0 0 0 1.021,-0.5102537 0.80712592,0.80712592 0 0 0 -0.51026,-1.0209963 0.80712592,0.80712592 0 0 0 -0.24365,-0.041504 z m 7.88233,0.4213865 a 0.38604585,0.38604585 0 0 0 -0.3545,0.263672 0.38604585,0.38604585 0 0 0 0.24414,0.4882812 0.38604585,0.38604585 0 0 0 0.48829,-0.2441407 0.38604585,0.38604585 0 0 0 -0.24415,-0.4882813 0.38604585,0.38604585 0 0 0 -0.13378,-0.019533 z m -5.52296,0.522461 a 0.653772,0.653772 0 0 0 -0.61963,0.4472657 0.653772,0.653772 0 0 0 0.41358,0.8266601 0.653772,0.653772 0 0 0 0.82715,-0.4130858 0.653772,0.653772 0 0 0 -0.41358,-0.8271485 0.653772,0.653772 0 0 0 -0.20752,-0.033691 z m -5.54834,0.447754 a 0.9964518,0.9964518 0 0 0 -0.0122,5e-4 0.9964518,0.9964518 0 0 0 -0.91796,0.6811523 0.9964518,0.9964518 0 0 0 0.62988,1.260254 0.9964518,0.9964518 0 0 0 1.26074,-0.6298828 0.9964518,0.9964518 0 0 0 -0.63037,-1.2607423 0.9964518,0.9964518 0 0 0 -0.33008,-0.05127 z m 7.90186,0.467285 a 0.52955532,0.52955532 0 0 0 -0.4834,0.3618165 0.52955532,0.52955532 0 0 0 0.33496,0.669922 0.52955532,0.52955532 0 0 0 0.66992,-0.334961 0.52955532,0.52955532 0 0 0 -0.33495,-0.669922 0.52955532,0.52955532 0 0 0 -0.18653,-0.026855 z m -11.58838,0.053223 a 1.3668749,1.3668749 0 0 0 0.41065,0.6967773 1.3668749,1.3668749 0 0 0 -0.74658,0.3115235 1.5187499,1.5187499 0 0 0 -0.28321,-0.654785 1.5187499,1.5187499 0 0 0 0.61914,-0.3535158 z M 450.809,8.391844 a 0.80712592,0.80712592 0 0 0 -0.0215,5e-4 0.80712592,0.80712592 0 0 0 -0.73975,0.5517578 0.80712592,0.80712592 0 0 0 0.51025,1.020996 0.80712592,0.80712592 0 0 0 1.021,-0.510742 0.80712592,0.80712592 0 0 0 -0.51026,-1.0209963 0.80712592,0.80712592 0 0 0 -0.25976,-0.041504 z m 7.89746,0.378418 a 0.42893983,0.42893983 0 0 0 -0.39404,0.293457 0.42893983,0.42893983 0 0 0 0.27099,0.5424805 0.42893983,0.42893983 0 0 0 0.54249,-0.2714845 0.42893983,0.42893983 0 0 0 -0.271,-0.5424805 0.42893983,0.42893983 0 0 0 -0.14844,-0.021972 z m -5.52197,0.5659178 a 0.653772,0.653772 0 0 0 -0.61963,0.4467774 0.653772,0.653772 0 0 0 0.41357,0.8271478 0.653772,0.653772 0 0 0 0.82715,-0.413574 0.653772,0.653772 0 0 0 -0.41357,-0.827148 0.653772,0.653772 0 0 0 -0.20752,-0.033203 z m -5.51905,0.447754 a 0.9964518,0.9964518 0 0 0 -0.95947,0.6811522 0.9964518,0.9964518 0 0 0 0.62988,1.260742 0.9964518,0.9964518 0 0 0 1.26075,-0.630371 0.9964518,0.9964518 0 0 0 -0.63038,-1.2602537 0.9964518,0.9964518 0 0 0 -0.30078,-0.05127 z m 7.87207,0.4667962 a 0.52955532,0.52955532 0 0 0 -0.48291,0.362305 0.52955532,0.52955532 0 0 0 0.33496,0.669434 0.52955532,0.52955532 0 0 0 0.66944,-0.334961 0.52955532,0.52955532 0 0 0 -0.33447,-0.669434 0.52955532,0.52955532 0 0 0 -0.15625,-0.02734 0.52955532,0.52955532 0 0 0 -0.0308,0 z m -11.58789,0.05322 a 1.3668749,1.3668749 0 0 0 0.41065,0.696777 1.3668749,1.3668749 0 0 0 -0.74658,0.311035 1.5187499,1.5187499 0 0 0 -0.2837,-0.654296 1.5187499,1.5187499 0 0 0 0.61963,-0.353516 z m 6.06885,0.459473 a 0.80712592,0.80712592 0 0 0 -0.0215,5e-4 0.80712592,0.80712592 0 0 0 -0.73975,0.551757 0.80712592,0.80712592 0 0 0 0.51026,1.020996 0.80712592,0.80712592 0 0 0 1.02099,-0.510742 0.80712592,0.80712592 0 0 0 -0.51025,-1.020996 0.80712592,0.80712592 0 0 0 -0.25977,-0.0415 z m 7.89746,0.378906 a 0.42893983,0.42893983 0 0 0 -0.39453,0.292969 0.42893983,0.42893983 0 0 0 0.27148,0.54248 0.42893983,0.42893983 0 0 0 0.54249,-0.271484 0.42893983,0.42893983 0 0 0 -0.271,-0.542481 0.42893983,0.42893983 0 0 0 -0.14844,-0.02148 z m -5.52197,0.56543 a 0.653772,0.653772 0 0 0 -0.61963,0.446777 0.653772,0.653772 0 0 0 0.41357,0.827148 0.653772,0.653772 0 0 0 0.82666,-0.413574 0.653772,0.653772 0 0 0 -0.41308,-0.827148 0.653772,0.653772 0 0 0 -0.20752,-0.0332 z m 2.35351,0.915039 a 0.52955532,0.52955532 0 0 0 -0.48339,0.361816 0.52955532,0.52955532 0 0 0 0.33496,0.669922 0.52955532,0.52955532 0 0 0 0.66943,-0.334961 0.52955532,0.52955532 0 0 0 -0.33496,-0.669922 0.52955532,0.52955532 0 0 0 -0.18604,-0.02686 z m -11.58837,0.05322 a 1.3668749,1.3668749 0 0 0 0.28027,0.560547 1.5187499,1.5187499 0 0 0 -0.6543,0.283203 1.5187499,1.5187499 0 0 0 -0.24512,-0.490234 1.5187499,1.5187499 0 0 0 0.61915,-0.353516 z m 6.08789,0.27002 a 0.9964518,0.9964518 0 0 0 -0.95996,0.68164 0.9964518,0.9964518 0 0 0 0.63037,1.260254 0.9964518,0.9964518 0 0 0 1.26025,-0.630371 0.9964518,0.9964518 0 0 0 -0.63037,-1.260254 0.9964518,0.9964518 0 0 0 -0.30029,-0.05127 z m -3.61573,0.166015 a 1.2301874,1.2301874 0 0 0 0.52442,1.047852 1.3668749,1.3668749 0 0 0 -0.96094,0.314453 1.5187499,1.5187499 0 0 0 -0.3916,-0.782715 1.3668749,1.3668749 0 0 0 0.82812,-0.57959 z m 11.4917,0.354004 a 0.47659978,0.47659978 0 0 0 -0.43701,0.325684 0.47659978,0.47659978 0 0 0 0.30127,0.603027 0.47659978,0.47659978 0 0 0 0.60303,-0.301269 0.47659978,0.47659978 0 0 0 -0.30176,-0.603028 0.47659978,0.47659978 0 0 0 -0.16553,-0.02441 z m -5.50732,0.459961 a 0.80712592,0.80712592 0 0 0 -0.77734,0.551758 0.80712592,0.80712592 0 0 0 0.51025,1.020996 0.80712592,0.80712592 0 0 0 1.021,-0.510254 0.80712592,0.80712592 0 0 0 -0.51026,-1.020996 0.80712592,0.80712592 0 0 0 -0.24365,-0.0415 z m 7.88232,0.421387 a 0.38604585,0.38604585 0 0 0 -0.35449,0.263672 0.38604585,0.38604585 0 0 0 0.24414,0.488281 0.38604585,0.38604585 0 0 0 0.48828,-0.244141 0.38604585,0.38604585 0 0 0 -0.24414,-0.488281 0.38604585,0.38604585 0 0 0 -0.13379,-0.01953 z m -5.52295,0.522461 a 0.653772,0.653772 0 0 0 -0.61963,0.447266 0.653772,0.653772 0 0 0 0.41358,0.82666 0.653772,0.653772 0 0 0 0.82715,-0.413575 0.653772,0.653772 0 0 0 -0.41358,-0.82666 0.653772,0.653772 0 0 0 -0.20752,-0.03369 z m -5.54834,0.447754 a 0.9964518,0.9964518 0 0 0 -0.0122,5e-4 0.9964518,0.9964518 0 0 0 -0.91796,0.681152 0.9964518,0.9964518 0 0 0 0.62988,1.260254 0.9964518,0.9964518 0 0 0 1.26074,-0.630371 0.9964518,0.9964518 0 0 0 -0.63037,-1.260254 0.9964518,0.9964518 0 0 0 -0.33008,-0.05127 z m 7.90186,0.467285 a 0.52955532,0.52955532 0 0 0 -0.4834,0.361816 0.52955532,0.52955532 0 0 0 0.33496,0.669922 0.52955532,0.52955532 0 0 0 0.66992,-0.334961 0.52955532,0.52955532 0 0 0 -0.33496,-0.669922 0.52955532,0.52955532 0 0 0 -0.18652,-0.02685 z m -11.58838,0.05322 a 1.3668749,1.3668749 0 0 0 0.41016,0.696289 1.3668749,1.3668749 0 0 0 -0.7461,0.311523 1.5187499,1.5187499 0 0 0 -0.2832,-0.654297 1.5187499,1.5187499 0 0 0 0.61914,-0.353515 z m 6.08496,0.459472 a 0.80712592,0.80712592 0 0 0 -0.77734,0.551758 0.80712592,0.80712592 0 0 0 0.51025,1.020996 0.80712592,0.80712592 0 0 0 1.021,-0.510254 0.80712592,0.80712592 0 0 0 -0.51026,-1.020996 0.80712592,0.80712592 0 0 0 -0.24365,-0.0415 z m 7.88135,0.378418 a 0.42893983,0.42893983 0 0 0 -0.39404,0.292969 0.42893983,0.42893983 0 0 0 0.27099,0.542969 0.42893983,0.42893983 0 0 0 0.54248,-0.271485 0.42893983,0.42893983 0 0 0 -0.27099,-0.54248 0.42893983,0.42893983 0 0 0 -0.14844,-0.02197 z m -5.52197,0.56543 a 0.653772,0.653772 0 0 0 -0.61963,0.447266 0.653772,0.653772 0 0 0 0.41357,0.827148 0.653772,0.653772 0 0 0 0.82715,-0.413574 0.653772,0.653772 0 0 0 -0.41357,-0.827149 0.653772,0.653772 0 0 0 -0.20752,-0.03369 z m -5.54834,0.447754 a 0.9964518,0.9964518 0 0 0 -0.0127,5e-4 0.9964518,0.9964518 0 0 0 -0.91748,0.681152 0.9964518,0.9964518 0 0 0 0.33886,1.105469 h 1.21338 a 0.9964518,0.9964518 0 0 0 0.33838,-0.475098 0.9964518,0.9964518 0 0 0 -0.63037,-1.260742 0.9964518,0.9964518 0 0 0 -0.33008,-0.05127 z m 7.90136,0.467285 a 0.52955532,0.52955532 0 0 0 -0.48291,0.361816 0.52955532,0.52955532 0 0 0 0.33496,0.669922 0.52955532,0.52955532 0 0 0 0.66944,-0.334961 0.52955532,0.52955532 0 0 0 -0.33447,-0.669433 0.52955532,0.52955532 0 0 0 -0.15625,-0.02734 0.52955532,0.52955532 0 0 0 -0.0308,0 z m -11.58789,0.05322 a 1.3668749,1.3668749 0 0 0 0.41065,0.696777 1.3668749,1.3668749 0 0 0 -0.74658,0.311035 1.5187499,1.5187499 0 0 0 -0.2837,-0.654297 1.5187499,1.5187499 0 0 0 0.61963,-0.353515 z m 6.06885,0.459472 a 0.80712592,0.80712592 0 0 0 -0.0215,5e-4 0.80712592,0.80712592 0 0 0 -0.73975,0.551758 0.80712592,0.80712592 0 0 0 -0.0415,0.254883 H 450.83 a 0.80712592,0.80712592 0 0 0 -0.55175,-0.765625 0.80712592,0.80712592 0 0 0 -0.25977,-0.0415 z m 7.89746,0.378418 a 0.42893983,0.42893983 0 0 0 -0.39453,0.293457 0.42893983,0.42893983 0 0 0 -0.022,0.135254 h 0.85791 a 0.42893983,0.42893983 0 0 0 -0.29297,-0.406738 0.42893983,0.42893983 0 0 0 -0.14844,-0.02197 z"
       inkscape:connector-curvature="0" />
    <path
       inkscape:connector-curvature="0"
       d="m 410.49451,19.476316 h 3.66797 a 1.5187499,1.5187499 0 0 1 -0.083,0.12256 1.5187499,1.5187499 0 0 1 0.49024,0.24512 1.5187499,1.5187499 0 0 1 0.16211,-0.36768 h 7.33642 a 1.5187499,1.5187499 0 0 1 -0.083,0.12256 1.5187499,1.5187499 0 0 1 0.49024,0.24512 1.5187499,1.5187499 0 0 1 0.16211,-0.36768 h 7.33642 a 1.5187499,1.5187499 0 0 1 -0.083,0.12256 1.5187499,1.5187499 0 0 1 0.49023,0.24512 1.5187499,1.5187499 0 0 1 0.16211,-0.36768 h 7.33643 a 1.5187499,1.5187499 0 0 1 -0.083,0.12256 1.5187499,1.5187499 0 0 1 0.49023,0.24512 1.5187499,1.5187499 0 0 1 0.16211,-0.36768 h 3.66797 v 3.48584 a 1.3668749,1.3668749 0 0 1 -0.22022,-0.19482 1.3668749,1.3668749 0 0 1 -0.92822,1.16797 1.3668749,1.3668749 0 0 1 -1.44336,-0.37696 1.3668749,1.3668749 0 0 1 -0.92871,1.16749 1.3668749,1.3668749 0 0 1 -1.57471,-0.54688 1.2301874,1.2301874 0 0 1 -0.84033,1.20801 1.2301874,1.2301874 0 0 1 -1.55566,-0.77832 1.2301874,1.2301874 0 0 1 0.46142,-1.39649 1.3668749,1.3668749 0 0 1 -1.09619,-0.44482 1.3668749,1.3668749 0 0 1 -0.92822,1.16797 1.3668749,1.3668749 0 0 1 -1.44336,-0.37696 1.3668749,1.3668749 0 0 1 -0.92871,1.16749 1.3668749,1.3668749 0 0 1 -1.57471,-0.54688 1.2301874,1.2301874 0 0 1 -0.83984,1.20801 1.2301874,1.2301874 0 0 1 -1.55615,-0.77832 1.2301874,1.2301874 0 0 1 0.46142,-1.39648 1.3668749,1.3668749 0 0 1 -1.09619,-0.44483 1.3668749,1.3668749 0 0 1 -0.92822,1.16797 1.3668749,1.3668749 0 0 1 -1.44336,-0.37744 1.3668749,1.3668749 0 0 1 -0.92823,1.16797 1.3668749,1.3668749 0 0 1 -1.57519,-0.54688 1.2301874,1.2301874 0 0 1 -0.83984,1.20801 1.2301874,1.2301874 0 0 1 -1.55616,-0.77832 1.2301874,1.2301874 0 0 1 0.46143,-1.39648 1.3668749,1.3668749 0 0 1 -1.0957,-0.44434 1.3668749,1.3668749 0 0 1 -0.92871,1.16748 1.3668749,1.3668749 0 0 1 -1.44336,-0.37744 1.3668749,1.3668749 0 0 1 -0.92823,1.16797 1.3668749,1.3668749 0 0 1 -1.5747,-0.5459 1.2301874,1.2301874 0 0 1 -0.84034,1.20703 1.2301874,1.2301874 0 0 1 -1.55615,-0.77832 1.2301874,1.2301874 0 0 1 0.46192,-1.39648 1.3668749,1.3668749 0 0 1 -0.87598,-0.24903 z m 0,4.92774 a 0.9964518,0.9964518 0 0 1 0.15479,0.29101 0.9964518,0.9964518 0 0 1 -0.15479,0.92237 z m 0,2.1709 a 0.80712592,0.80712592 0 0 1 0.76563,0.55175 0.80712592,0.80712592 0 0 1 -0.51026,1.021 0.80712592,0.80712592 0 0 1 -0.25537,0.0415 z m 0,8.28369 a 0.42893983,0.42893983 0 0 1 0.40674,0.29345 0.42893983,0.42893983 0 0 1 -0.271,0.54249 0.42893983,0.42893983 0 0 1 -0.13574,0.022 z m 0.13672,-5.10547 a 0.653772,0.653772 0 0 1 0.44727,-0.61963 0.653772,0.653772 0 0 1 0.82666,0.41357 0.653772,0.653772 0 0 1 -0.41309,0.82666 0.653772,0.653772 0 0 1 -0.82715,-0.41308 0.653772,0.653772 0 0 1 -0.0337,-0.20752 z m 0.91504,2.35351 a 0.52955532,0.52955532 0 0 1 0.36182,-0.48339 0.52955532,0.52955532 0 0 1 0.66992,0.33496 0.52955532,0.52955532 0 0 1 -0.33496,0.66943 0.52955532,0.52955532 0 0 1 -0.66993,-0.33496 0.52955532,0.52955532 0 0 1 -0.0269,-0.18604 z m 0.0532,-11.58837 a 1.3668749,1.3668749 0 0 1 0.56103,0.28027 1.5187499,1.5187499 0 0 1 0.28272,-0.6543 1.5187499,1.5187499 0 0 1 -0.49024,-0.24512 1.5187499,1.5187499 0 0 1 -0.35351,0.61915 z m 0.27002,6.0581 a 0.9964518,0.9964518 0 0 1 5e-4,-0.0122 0.9964518,0.9964518 0 0 1 0.68115,-0.91797 0.9964518,0.9964518 0 0 1 1.26025,0.63037 0.9964518,0.9964518 0 0 1 -0.62988,1.26026 0.9964518,0.9964518 0 0 1 -1.26074,-0.63037 0.9964518,0.9964518 0 0 1 -0.0513,-0.33008 z m 0.1665,-3.58594 a 1.2301874,1.2301874 0 0 1 1.04737,0.52393 1.3668749,1.3668749 0 0 1 0.31494,-0.96045 1.5187499,1.5187499 0 0 1 -0.78321,-0.3916 1.3668749,1.3668749 0 0 1 -0.5791,0.82812 z m 0.35403,11.49219 a 0.47659978,0.47659978 0 0 1 0.32568,-0.4375 0.47659978,0.47659978 0 0 1 0.60254,0.30127 0.47659978,0.47659978 0 0 1 -0.30127,0.60303 0.47659978,0.47659978 0 0 1 -0.60303,-0.30176 0.47659978,0.47659978 0 0 1 -0.0239,-0.16504 z m 0.45947,-5.52392 a 0.80712592,0.80712592 0 0 1 5e-4,-0.0215 0.80712592,0.80712592 0 0 1 0.55176,-0.73975 0.80712592,0.80712592 0 0 1 1.02099,0.51026 0.80712592,0.80712592 0 0 1 -0.51074,1.02099 0.80712592,0.80712592 0 0 1 -1.021,-0.51025 0.80712592,0.80712592 0 0 1 -0.0415,-0.25976 z m 0.42139,7.89844 a 0.38604585,0.38604585 0 0 1 0.26367,-0.3545 0.38604585,0.38604585 0 0 1 0.48828,0.24414 0.38604585,0.38604585 0 0 1 -0.24414,0.48829 0.38604585,0.38604585 0 0 1 -0.48828,-0.24415 0.38604585,0.38604585 0 0 1 -0.0195,-0.13378 z m 0.52294,-5.52296 a 0.653772,0.653772 0 0 1 0.44678,-0.61963 0.653772,0.653772 0 0 1 0.82715,0.41358 0.653772,0.653772 0 0 1 -0.41357,0.82715 0.653772,0.653772 0 0 1 -0.82715,-0.41358 0.653772,0.653772 0 0 1 -0.0332,-0.20752 z m 0.44776,-5.51904 a 0.9964518,0.9964518 0 0 1 0.68115,-0.95947 0.9964518,0.9964518 0 0 1 1.26074,0.62988 0.9964518,0.9964518 0 0 1 -0.63037,1.26074 0.9964518,0.9964518 0 0 1 -1.26025,-0.63037 0.9964518,0.9964518 0 0 1 -0.0513,-0.30078 z m 0.4668,7.87256 a 0.52955532,0.52955532 0 0 1 0.3623,-0.4834 0.52955532,0.52955532 0 0 1 0.66943,0.33496 0.52955532,0.52955532 0 0 1 -0.33447,0.66992 0.52955532,0.52955532 0 0 1 -0.66992,-0.33495 0.52955532,0.52955532 0 0 1 -0.0273,-0.15577 0.52955532,0.52955532 0 0 1 0,-0.0308 z m 0.0532,-11.58838 a 1.3668749,1.3668749 0 0 1 0.69678,0.41065 1.3668749,1.3668749 0 0 1 0.31152,-0.74658 1.5187499,1.5187499 0 0 1 -0.6543,-0.28321 1.5187499,1.5187499 0 0 1 -0.354,0.61914 z m 0.45947,6.06885 a 0.80712592,0.80712592 0 0 1 5e-4,-0.0215 0.80712592,0.80712592 0 0 1 0.55176,-0.73975 0.80712592,0.80712592 0 0 1 1.021,0.51025 0.80712592,0.80712592 0 0 1 -0.51075,1.021 0.80712592,0.80712592 0 0 1 -1.02099,-0.51026 0.80712592,0.80712592 0 0 1 -0.0415,-0.25976 z m 0.37891,7.89746 a 0.42893983,0.42893983 0 0 1 0.29297,-0.39404 0.42893983,0.42893983 0 0 1 0.54248,0.27099 0.42893983,0.42893983 0 0 1 -0.27149,0.54249 0.42893983,0.42893983 0 0 1 -0.54248,-0.271 0.42893983,0.42893983 0 0 1 -0.0215,-0.14844 z m 0.56543,-5.52197 a 0.653772,0.653772 0 0 1 0.44677,-0.61963 0.653772,0.653772 0 0 1 0.82715,0.41357 0.653772,0.653772 0 0 1 -0.41357,0.82715 0.653772,0.653772 0 0 1 -0.82715,-0.41357 0.653772,0.653772 0 0 1 -0.0332,-0.20752 z m 0.44775,-5.51905 a 0.9964518,0.9964518 0 0 1 0.68115,-0.95947 0.9964518,0.9964518 0 0 1 1.26075,0.62988 0.9964518,0.9964518 0 0 1 -0.63038,1.26075 0.9964518,0.9964518 0 0 1 -1.26025,-0.63038 0.9964518,0.9964518 0 0 1 -0.0513,-0.30078 z m 0.46729,7.87256 a 0.52955532,0.52955532 0 0 1 0.36181,-0.4834 0.52955532,0.52955532 0 0 1 0.66992,0.33496 0.52955532,0.52955532 0 0 1 -0.33496,0.66944 0.52955532,0.52955532 0 0 1 -0.66992,-0.33447 0.52955532,0.52955532 0 0 1 -0.0269,-0.18653 z m 0.0532,-11.58838 a 1.3668749,1.3668749 0 0 1 0.69629,0.41016 1.3668749,1.3668749 0 0 1 0.31103,-0.74658 1.5187499,1.5187499 0 0 1 -0.65381,-0.28272 1.5187499,1.5187499 0 0 1 -0.35351,0.61914 z m 0.45947,6.08496 a 0.80712592,0.80712592 0 0 1 0.55176,-0.77734 0.80712592,0.80712592 0 0 1 1.021,0.51025 0.80712592,0.80712592 0 0 1 -0.51026,1.021 0.80712592,0.80712592 0 0 1 -1.02099,-0.51025 0.80712592,0.80712592 0 0 1 -0.0415,-0.24366 z m 0.37842,7.88135 a 0.42893983,0.42893983 0 0 1 0.29297,-0.39453 0.42893983,0.42893983 0 0 1 0.54248,0.27148 0.42893983,0.42893983 0 0 1 -0.271,0.54249 0.42893983,0.42893983 0 0 1 -0.54297,-0.271 0.42893983,0.42893983 0 0 1 -0.0215,-0.14844 z m 0.56543,-5.52197 a 0.653772,0.653772 0 0 1 0.44726,-0.61963 0.653772,0.653772 0 0 1 0.82666,0.41357 0.653772,0.653772 0 0 1 -0.41357,0.82666 0.653772,0.653772 0 0 1 -0.82666,-0.41308 0.653772,0.653772 0 0 1 -0.0337,-0.20752 z m 0.91504,2.35351 a 0.52955532,0.52955532 0 0 1 0.36181,-0.48339 0.52955532,0.52955532 0 0 1 0.66993,0.33496 0.52955532,0.52955532 0 0 1 -0.33496,0.66943 0.52955532,0.52955532 0 0 1 -0.66993,-0.33496 0.52955532,0.52955532 0 0 1 -0.0269,-0.18604 z m 0.0532,-11.58837 a 1.3668749,1.3668749 0 0 1 0.56104,0.28027 1.5187499,1.5187499 0 0 1 0.28271,-0.6543 1.5187499,1.5187499 0 0 1 -0.49023,-0.24512 1.5187499,1.5187499 0 0 1 -0.35352,0.61915 z m 0.27002,6.0581 a 0.9964518,0.9964518 0 0 1 5e-4,-0.0122 0.9964518,0.9964518 0 0 1 0.68115,-0.91797 0.9964518,0.9964518 0 0 1 1.26026,0.63037 0.9964518,0.9964518 0 0 1 -0.63037,1.26026 0.9964518,0.9964518 0 0 1 -1.26026,-0.63037 0.9964518,0.9964518 0 0 1 -0.0513,-0.33008 z m 0.16602,-3.58594 a 1.2301874,1.2301874 0 0 1 1.04785,0.52393 1.3668749,1.3668749 0 0 1 0.31445,-0.96045 1.5187499,1.5187499 0 0 1 -0.78271,-0.3916 1.3668749,1.3668749 0 0 1 -0.57959,0.82812 z m 0.35455,11.49219 a 0.47659978,0.47659978 0 0 1 0.32519,-0.4375 0.47659978,0.47659978 0 0 1 0.60303,0.30127 0.47659978,0.47659978 0 0 1 -0.30127,0.60303 0.47659978,0.47659978 0 0 1 -0.60303,-0.30176 0.47659978,0.47659978 0 0 1 -0.0239,-0.16504 z m 0.45947,-5.50781 a 0.80712592,0.80712592 0 0 1 0.55225,-0.77734 0.80712592,0.80712592 0 0 1 1.0205,0.51025 0.80712592,0.80712592 0 0 1 -0.51025,1.021 0.80712592,0.80712592 0 0 1 -1.021,-0.51026 0.80712592,0.80712592 0 0 1 -0.0415,-0.24365 z m 0.42139,7.88233 a 0.38604585,0.38604585 0 0 1 0.26367,-0.3545 0.38604585,0.38604585 0 0 1 0.48828,0.24414 0.38604585,0.38604585 0 0 1 -0.24414,0.48829 0.38604585,0.38604585 0 0 1 -0.48828,-0.24415 0.38604585,0.38604585 0 0 1 -0.0195,-0.13378 z m 0.52246,-5.52296 a 0.653772,0.653772 0 0 1 0.44726,-0.61963 0.653772,0.653772 0 0 1 0.82715,0.41358 0.653772,0.653772 0 0 1 -0.41357,0.82715 0.653772,0.653772 0 0 1 -0.82715,-0.41358 0.653772,0.653772 0 0 1 -0.0337,-0.20752 z m 0.44775,-5.54834 a 0.9964518,0.9964518 0 0 1 5e-4,-0.0122 0.9964518,0.9964518 0 0 1 0.68115,-0.91796 0.9964518,0.9964518 0 0 1 1.26026,0.62988 0.9964518,0.9964518 0 0 1 -0.62988,1.26074 0.9964518,0.9964518 0 0 1 -1.26075,-0.63037 0.9964518,0.9964518 0 0 1 -0.0513,-0.33008 z m 0.46729,7.90186 a 0.52955532,0.52955532 0 0 1 0.36181,-0.4834 0.52955532,0.52955532 0 0 1 0.66993,0.33496 0.52955532,0.52955532 0 0 1 -0.33497,0.66992 0.52955532,0.52955532 0 0 1 -0.66943,-0.33495 0.52955532,0.52955532 0 0 1 -0.0273,-0.15577 0.52955532,0.52955532 0 0 1 0,-0.0308 z m 0.0532,-11.58838 a 1.3668749,1.3668749 0 0 1 0.69678,0.41065 1.3668749,1.3668749 0 0 1 0.31152,-0.74658 1.5187499,1.5187499 0 0 1 -0.65478,-0.2837 1.5187499,1.5187499 0 0 1 -0.35352,0.61963 z m 0.45947,6.06885 a 0.80712592,0.80712592 0 0 1 4.9e-4,-0.0215 0.80712592,0.80712592 0 0 1 0.55176,-0.73975 0.80712592,0.80712592 0 0 1 1.02099,0.51025 0.80712592,0.80712592 0 0 1 -0.51074,1.021 0.80712592,0.80712592 0 0 1 -1.02099,-0.51026 0.80712592,0.80712592 0 0 1 -0.0415,-0.25976 z m 0.37842,7.89746 a 0.42893983,0.42893983 0 0 1 0.29346,-0.39404 0.42893983,0.42893983 0 0 1 0.54248,0.27099 0.42893983,0.42893983 0 0 1 -0.27149,0.54249 0.42893983,0.42893983 0 0 1 -0.54248,-0.271 0.42893983,0.42893983 0 0 1 -0.022,-0.14844 z m 0.56592,-5.52197 a 0.653772,0.653772 0 0 1 0.44678,-0.61963 0.653772,0.653772 0 0 1 0.82714,0.41357 0.653772,0.653772 0 0 1 -0.41357,0.82715 0.653772,0.653772 0 0 1 -0.82715,-0.41357 0.653772,0.653772 0 0 1 -0.0332,-0.20752 z m 0.44775,-5.51905 a 0.9964518,0.9964518 0 0 1 0.68115,-0.95947 0.9964518,0.9964518 0 0 1 1.26075,0.62988 0.9964518,0.9964518 0 0 1 -0.63037,1.26075 0.9964518,0.9964518 0 0 1 -1.26026,-0.63038 0.9964518,0.9964518 0 0 1 -0.0513,-0.30078 z m 0.4668,7.87207 a 0.52955532,0.52955532 0 0 1 0.3623,-0.48291 0.52955532,0.52955532 0 0 1 0.66993,0.33496 0.52955532,0.52955532 0 0 1 -0.33497,0.66944 0.52955532,0.52955532 0 0 1 -0.66992,-0.33447 0.52955532,0.52955532 0 0 1 -0.0273,-0.15625 0.52955532,0.52955532 0 0 1 0,-0.0308 z m 0.0532,-11.58838 a 1.3668749,1.3668749 0 0 1 0.69678,0.41065 1.3668749,1.3668749 0 0 1 0.31103,-0.74609 1.5187499,1.5187499 0 0 1 -0.6538,-0.28321 1.5187499,1.5187499 0 0 1 -0.35401,0.61865 z m 0.45996,6.08545 a 0.80712592,0.80712592 0 0 1 0.55176,-0.77734 0.80712592,0.80712592 0 0 1 1.021,0.51025 0.80712592,0.80712592 0 0 1 -0.51075,1.021 0.80712592,0.80712592 0 0 1 -1.0205,-0.51025 0.80712592,0.80712592 0 0 1 -0.0415,-0.24366 z m 0.37842,7.88135 a 0.42893983,0.42893983 0 0 1 0.29297,-0.39453 0.42893983,0.42893983 0 0 1 0.54248,0.27148 0.42893983,0.42893983 0 0 1 -0.271,0.54249 0.42893983,0.42893983 0 0 1 -0.54296,-0.271 0.42893983,0.42893983 0 0 1 -0.0215,-0.14844 z m 0.56543,-5.52197 a 0.653772,0.653772 0 0 1 0.44678,-0.61963 0.653772,0.653772 0 0 1 0.82715,0.41357 0.653772,0.653772 0 0 1 -0.41358,0.82666 0.653772,0.653772 0 0 1 -0.82666,-0.41308 0.653772,0.653772 0 0 1 -0.0337,-0.20752 z m 0.91504,2.35351 a 0.52955532,0.52955532 0 0 1 0.36182,-0.48339 0.52955532,0.52955532 0 0 1 0.66992,0.33496 0.52955532,0.52955532 0 0 1 -0.33496,0.66943 0.52955532,0.52955532 0 0 1 -0.66992,-0.33496 0.52955532,0.52955532 0 0 1 -0.0269,-0.18604 z m 0.0532,-11.58837 a 1.3668749,1.3668749 0 0 1 0.56055,0.28027 1.5187499,1.5187499 0 0 1 0.2832,-0.6543 1.5187499,1.5187499 0 0 1 -0.49023,-0.24512 1.5187499,1.5187499 0 0 1 -0.35352,0.61915 z m 0.27002,6.08789 a 0.9964518,0.9964518 0 0 1 0.68164,-0.95996 0.9964518,0.9964518 0 0 1 1.26026,0.63037 0.9964518,0.9964518 0 0 1 -0.63037,1.26025 0.9964518,0.9964518 0 0 1 -1.26026,-0.63037 0.9964518,0.9964518 0 0 1 -0.0513,-0.30029 z m 0.16602,-3.61573 a 1.2301874,1.2301874 0 0 1 1.04785,0.52442 1.3668749,1.3668749 0 0 1 0.31445,-0.96094 1.5187499,1.5187499 0 0 1 -0.78271,-0.3916 1.3668749,1.3668749 0 0 1 -0.57959,0.82812 z m 0.354,11.49171 a 0.47659978,0.47659978 0 0 1 0.32569,-0.43702 0.47659978,0.47659978 0 0 1 0.60302,0.30127 0.47659978,0.47659978 0 0 1 -0.30127,0.60303 0.47659978,0.47659978 0 0 1 -0.60302,-0.30176 0.47659978,0.47659978 0 0 1 -0.0244,-0.16552 z m 0.45996,-5.50733 a 0.80712592,0.80712592 0 0 1 0.55176,-0.77734 0.80712592,0.80712592 0 0 1 1.021,0.51025 0.80712592,0.80712592 0 0 1 -0.51026,1.021 0.80712592,0.80712592 0 0 1 -1.02099,-0.51026 0.80712592,0.80712592 0 0 1 -0.0415,-0.24365 z m 0.42139,7.88233 a 0.38604585,0.38604585 0 0 1 0.26367,-0.3545 0.38604585,0.38604585 0 0 1 0.48828,0.24414 0.38604585,0.38604585 0 0 1 -0.24414,0.48829 0.38604585,0.38604585 0 0 1 -0.48828,-0.24415 0.38604585,0.38604585 0 0 1 -0.0195,-0.13378 z m 0.52246,-5.52296 a 0.653772,0.653772 0 0 1 0.44727,-0.61963 0.653772,0.653772 0 0 1 0.82666,0.41358 0.653772,0.653772 0 0 1 -0.41309,0.82715 0.653772,0.653772 0 0 1 -0.82715,-0.41358 0.653772,0.653772 0 0 1 -0.0337,-0.20752 z m 0.44775,-5.54834 a 0.9964518,0.9964518 0 0 1 5e-4,-0.0122 0.9964518,0.9964518 0 0 1 0.68116,-0.91796 0.9964518,0.9964518 0 0 1 1.26025,0.62988 0.9964518,0.9964518 0 0 1 -0.62988,1.26074 0.9964518,0.9964518 0 0 1 -1.26074,-0.63037 0.9964518,0.9964518 0 0 1 -0.0513,-0.33008 z m 0.46729,7.90186 a 0.52955532,0.52955532 0 0 1 0.36182,-0.4834 0.52955532,0.52955532 0 0 1 0.66992,0.33496 0.52955532,0.52955532 0 0 1 -0.33496,0.66992 0.52955532,0.52955532 0 0 1 -0.66993,-0.33495 0.52955532,0.52955532 0 0 1 -0.0268,-0.18653 z m 0.0532,-11.58838 a 1.3668749,1.3668749 0 0 1 0.69678,0.41065 1.3668749,1.3668749 0 0 1 0.31152,-0.74658 1.5187499,1.5187499 0 0 1 -0.65478,-0.28321 1.5187499,1.5187499 0 0 1 -0.35352,0.61914 z m 0.45947,6.06885 a 0.80712592,0.80712592 0 0 1 5e-4,-0.0215 0.80712592,0.80712592 0 0 1 0.55176,-0.73975 0.80712592,0.80712592 0 0 1 1.021,0.51025 0.80712592,0.80712592 0 0 1 -0.51075,1.021 0.80712592,0.80712592 0 0 1 -1.02099,-0.51026 0.80712592,0.80712592 0 0 1 -0.0415,-0.25976 z m 0.37842,7.89746 a 0.42893983,0.42893983 0 0 1 0.29346,-0.39404 0.42893983,0.42893983 0 0 1 0.54248,0.27099 0.42893983,0.42893983 0 0 1 -0.27149,0.54249 0.42893983,0.42893983 0 0 1 -0.54248,-0.271 0.42893983,0.42893983 0 0 1 -0.022,-0.14844 z m 0.56592,-5.52197 a 0.653772,0.653772 0 0 1 0.44678,-0.61963 0.653772,0.653772 0 0 1 0.82714,0.41357 0.653772,0.653772 0 0 1 -0.41357,0.82715 0.653772,0.653772 0 0 1 -0.82715,-0.41357 0.653772,0.653772 0 0 1 -0.0332,-0.20752 z m 0.44775,-5.51905 a 0.9964518,0.9964518 0 0 1 0.68115,-0.95947 0.9964518,0.9964518 0 0 1 1.26075,0.62988 0.9964518,0.9964518 0 0 1 -0.63037,1.26075 0.9964518,0.9964518 0 0 1 -1.26026,-0.63038 0.9964518,0.9964518 0 0 1 -0.0513,-0.30078 z m 0.4668,7.87207 a 0.52955532,0.52955532 0 0 1 0.3623,-0.48291 0.52955532,0.52955532 0 0 1 0.66944,0.33496 0.52955532,0.52955532 0 0 1 -0.33496,0.66944 0.52955532,0.52955532 0 0 1 -0.66944,-0.33447 0.52955532,0.52955532 0 0 1 -0.0273,-0.15625 0.52955532,0.52955532 0 0 1 0,-0.0308 z m 0.0532,-11.58789 a 1.3668749,1.3668749 0 0 1 0.69678,0.41065 1.3668749,1.3668749 0 0 1 0.31103,-0.74658 1.5187499,1.5187499 0 0 1 -0.6543,-0.2837 1.5187499,1.5187499 0 0 1 -0.35351,0.61963 z m 0.45947,6.06885 a 0.80712592,0.80712592 0 0 1 5e-4,-0.0215 0.80712592,0.80712592 0 0 1 0.55176,-0.73975 0.80712592,0.80712592 0 0 1 1.02099,0.51026 0.80712592,0.80712592 0 0 1 -0.51074,1.02099 0.80712592,0.80712592 0 0 1 -1.02099,-0.51025 0.80712592,0.80712592 0 0 1 -0.0415,-0.25977 z m 0.37891,7.89746 a 0.42893983,0.42893983 0 0 1 0.29297,-0.39453 0.42893983,0.42893983 0 0 1 0.54248,0.27148 0.42893983,0.42893983 0 0 1 -0.27149,0.54249 0.42893983,0.42893983 0 0 1 -0.54248,-0.271 0.42893983,0.42893983 0 0 1 -0.0215,-0.14844 z m 0.56543,-5.52197 a 0.653772,0.653772 0 0 1 0.44677,-0.61963 0.653772,0.653772 0 0 1 0.82715,0.41357 0.653772,0.653772 0 0 1 -0.41357,0.82666 0.653772,0.653772 0 0 1 -0.82715,-0.41308 0.653772,0.653772 0 0 1 -0.0332,-0.20752 z m 0.91504,2.35351 a 0.52955532,0.52955532 0 0 1 0.36181,-0.48339 0.52955532,0.52955532 0 0 1 0.66992,0.33496 0.52955532,0.52955532 0 0 1 -0.33496,0.66943 0.52955532,0.52955532 0 0 1 -0.66992,-0.33496 0.52955532,0.52955532 0 0 1 -0.0269,-0.18604 z m 0.0532,-11.58837 a 1.3668749,1.3668749 0 0 1 0.56054,0.28027 1.5187499,1.5187499 0 0 1 0.28321,-0.6543 1.5187499,1.5187499 0 0 1 -0.49024,-0.24512 1.5187499,1.5187499 0 0 1 -0.35351,0.61915 z m 0.27002,6.08789 a 0.9964518,0.9964518 0 0 1 0.68164,-0.95996 0.9964518,0.9964518 0 0 1 1.26025,0.63037 0.9964518,0.9964518 0 0 1 -0.63037,1.26025 0.9964518,0.9964518 0 0 1 -1.26025,-0.63037 0.9964518,0.9964518 0 0 1 -0.0513,-0.30029 z m 0.16601,-3.61573 a 1.2301874,1.2301874 0 0 1 1.04785,0.52442 1.3668749,1.3668749 0 0 1 0.31446,-0.96094 1.5187499,1.5187499 0 0 1 -0.78272,-0.3916 1.3668749,1.3668749 0 0 1 -0.57959,0.82812 z m 0.35413,11.4917 a 0.47659978,0.47659978 0 0 1 0.32568,-0.43701 0.47659978,0.47659978 0 0 1 0.60303,0.30127 0.47659978,0.47659978 0 0 1 -0.30127,0.60303 0.47659978,0.47659978 0 0 1 -0.60303,-0.30176 0.47659978,0.47659978 0 0 1 -0.0244,-0.16553 z m 0.45996,-5.50732 a 0.80712592,0.80712592 0 0 1 0.55175,-0.77734 0.80712592,0.80712592 0 0 1 1.021,0.51025 0.80712592,0.80712592 0 0 1 -0.51025,1.021 0.80712592,0.80712592 0 0 1 -1.021,-0.51026 0.80712592,0.80712592 0 0 1 -0.0415,-0.24365 z m 0.42138,7.88232 a 0.38604585,0.38604585 0 0 1 0.26368,-0.35449 0.38604585,0.38604585 0 0 1 0.48828,0.24414 0.38604585,0.38604585 0 0 1 -0.24414,0.48828 0.38604585,0.38604585 0 0 1 -0.48829,-0.24414 0.38604585,0.38604585 0 0 1 -0.0195,-0.13379 z m 0.52246,-5.52295 a 0.653772,0.653772 0 0 1 0.44727,-0.61963 0.653772,0.653772 0 0 1 0.82666,0.41358 0.653772,0.653772 0 0 1 -0.41357,0.82715 0.653772,0.653772 0 0 1 -0.82666,-0.41358 0.653772,0.653772 0 0 1 -0.0337,-0.20752 z m 0.44776,-5.54834 a 0.9964518,0.9964518 0 0 1 5e-4,-0.0122 0.9964518,0.9964518 0 0 1 0.68115,-0.91796 0.9964518,0.9964518 0 0 1 1.26025,0.62988 0.9964518,0.9964518 0 0 1 -0.63037,1.26074 0.9964518,0.9964518 0 0 1 -1.26025,-0.63037 0.9964518,0.9964518 0 0 1 -0.0513,-0.33008 z m 0.46728,7.90186 a 0.52955532,0.52955532 0 0 1 0.36182,-0.4834 0.52955532,0.52955532 0 0 1 0.66992,0.33496 0.52955532,0.52955532 0 0 1 -0.33496,0.66992 0.52955532,0.52955532 0 0 1 -0.66992,-0.33496 0.52955532,0.52955532 0 0 1 -0.0269,-0.18652 z m 0.0532,-11.58838 a 1.3668749,1.3668749 0 0 1 0.69629,0.41016 1.3668749,1.3668749 0 0 1 0.31153,-0.7461 1.5187499,1.5187499 0 0 1 -0.6543,-0.2832 1.5187499,1.5187499 0 0 1 -0.35352,0.61914 z m 0.45948,6.08496 a 0.80712592,0.80712592 0 0 1 0.55175,-0.77734 0.80712592,0.80712592 0 0 1 1.021,0.51025 0.80712592,0.80712592 0 0 1 -0.51025,1.021 0.80712592,0.80712592 0 0 1 -1.021,-0.51026 0.80712592,0.80712592 0 0 1 -0.0415,-0.24365 z m 0.37841,7.88135 a 0.42893983,0.42893983 0 0 1 0.29297,-0.39404 0.42893983,0.42893983 0 0 1 0.54297,0.27099 0.42893983,0.42893983 0 0 1 -0.27148,0.54248 0.42893983,0.42893983 0 0 1 -0.54248,-0.27099 0.42893983,0.42893983 0 0 1 -0.022,-0.14844 z m 0.56543,-5.52197 a 0.653772,0.653772 0 0 1 0.44727,-0.61963 0.653772,0.653772 0 0 1 0.82715,0.41357 0.653772,0.653772 0 0 1 -0.41358,0.82715 0.653772,0.653772 0 0 1 -0.82715,-0.41357 0.653772,0.653772 0 0 1 -0.0337,-0.20752 z m 0.44776,-5.54834 a 0.9964518,0.9964518 0 0 1 5e-4,-0.0127 0.9964518,0.9964518 0 0 1 0.68115,-0.91748 0.9964518,0.9964518 0 0 1 1.10547,0.33886 v 1.21338 a 0.9964518,0.9964518 0 0 1 -0.4751,0.33838 0.9964518,0.9964518 0 0 1 -1.26074,-0.63037 0.9964518,0.9964518 0 0 1 -0.0513,-0.33008 z m 0.46728,7.90136 a 0.52955532,0.52955532 0 0 1 0.36182,-0.48291 0.52955532,0.52955532 0 0 1 0.66992,0.33496 0.52955532,0.52955532 0 0 1 -0.33496,0.66944 0.52955532,0.52955532 0 0 1 -0.66943,-0.33447 0.52955532,0.52955532 0 0 1 -0.0273,-0.15625 0.52955532,0.52955532 0 0 1 0,-0.0308 z m 0.0532,-11.58789 a 1.3668749,1.3668749 0 0 1 0.69678,0.41065 1.3668749,1.3668749 0 0 1 0.31103,-0.74658 1.5187499,1.5187499 0 0 1 -0.65429,-0.2837 1.5187499,1.5187499 0 0 1 -0.35352,0.61963 z m 0.45947,6.06885 a 0.80712592,0.80712592 0 0 1 5e-4,-0.0215 0.80712592,0.80712592 0 0 1 0.55176,-0.73975 0.80712592,0.80712592 0 0 1 0.25489,-0.0415 v 1.61428 a 0.80712592,0.80712592 0 0 1 -0.76563,-0.55175 0.80712592,0.80712592 0 0 1 -0.0415,-0.25977 z m 0.37842,7.89746 a 0.42893983,0.42893983 0 0 1 0.29346,-0.39453 0.42893983,0.42893983 0 0 1 0.13525,-0.022 v 0.85791 a 0.42893983,0.42893983 0 0 1 -0.40673,-0.29297 0.42893983,0.42893983 0 0 1 -0.022,-0.14844 z"
       style="vector-effect:non-scaling-stroke;fill:#000000;fill-opacity:1;stroke:none;stroke-width:1;stroke-miterlimit:4;stroke-dasharray:none;stroke-opacity:1;stop-color:#000000"
       id="path1028" />
    <path
       inkscape:connector-curvature="0"
       d="m 442.11708,-12.146257 h -3.66797 a 1.5187499,1.5187499 0 0 1 0.083,-0.12256 1.5187499,1.5187499 0 0 1 -0.49023,-0.24512 1.5187499,1.5187499 0 0 1 -0.16211,0.36768 h -7.33643 a 1.5187499,1.5187499 0 0 1 0.083,-0.12256 1.5187499,1.5187499 0 0 1 -0.49024,-0.24512 1.5187499,1.5187499 0 0 1 -0.16211,0.36768 h -7.33642 a 1.5187499,1.5187499 0 0 1 0.083,-0.12256 1.5187499,1.5187499 0 0 1 -0.49024,-0.24512 1.5187499,1.5187499 0 0 1 -0.16211,0.36768 h -7.33642 a 1.5187499,1.5187499 0 0 1 0.083,-0.12256 1.5187499,1.5187499 0 0 1 -0.49024,-0.24512 1.5187499,1.5187499 0 0 1 -0.16211,0.36768 h -3.66797 v -3.48584 a 1.3668749,1.3668749 0 0 1 0.22022,0.19482 1.3668749,1.3668749 0 0 1 0.92822,-1.16797 1.3668749,1.3668749 0 0 1 1.44336,0.37696 1.3668749,1.3668749 0 0 1 0.92871,-1.16749 1.3668749,1.3668749 0 0 1 1.57471,0.54688 1.2301874,1.2301874 0 0 1 0.84033,-1.20801 1.2301874,1.2301874 0 0 1 1.55566,0.77832 1.2301874,1.2301874 0 0 1 -0.46142,1.39649 1.3668749,1.3668749 0 0 1 1.09619,0.44482 1.3668749,1.3668749 0 0 1 0.92822,-1.16797 1.3668749,1.3668749 0 0 1 1.44336,0.37696 1.3668749,1.3668749 0 0 1 0.92871,-1.16749 1.3668749,1.3668749 0 0 1 1.57471,0.54688 1.2301874,1.2301874 0 0 1 0.83984,-1.20801 1.2301874,1.2301874 0 0 1 1.55616,0.77832 1.2301874,1.2301874 0 0 1 -0.46143,1.39648 1.3668749,1.3668749 0 0 1 1.09619,0.44483 1.3668749,1.3668749 0 0 1 0.92822,-1.16797 1.3668749,1.3668749 0 0 1 1.44336,0.37744 1.3668749,1.3668749 0 0 1 0.92823,-1.16797 1.3668749,1.3668749 0 0 1 1.57519,0.54688 1.2301874,1.2301874 0 0 1 0.83985,-1.20801 1.2301874,1.2301874 0 0 1 1.55615,0.77832 1.2301874,1.2301874 0 0 1 -0.46143,1.39648 1.3668749,1.3668749 0 0 1 1.09571,0.44434 1.3668749,1.3668749 0 0 1 0.92871,-1.16748 1.3668749,1.3668749 0 0 1 1.44336,0.37744 1.3668749,1.3668749 0 0 1 0.92822,-1.16797 1.3668749,1.3668749 0 0 1 1.57471,0.5459 1.2301874,1.2301874 0 0 1 0.84033,-1.20703 1.2301874,1.2301874 0 0 1 1.55615,0.77832 1.2301874,1.2301874 0 0 1 -0.46191,1.39648 1.3668749,1.3668749 0 0 1 0.87597,0.24903 z m 0,-4.92774 a 0.9964518,0.9964518 0 0 1 -0.15479,-0.29101 0.9964518,0.9964518 0 0 1 0.15479,-0.92237 z m 0,-2.1709 a 0.80712592,0.80712592 0 0 1 -0.76563,-0.55175 0.80712592,0.80712592 0 0 1 0.51026,-1.021 0.80712592,0.80712592 0 0 1 0.25537,-0.0415 z m 0,-8.28369 a 0.42893983,0.42893983 0 0 1 -0.40674,-0.29345 0.42893983,0.42893983 0 0 1 0.271,-0.54249 0.42893983,0.42893983 0 0 1 0.13574,-0.022 z m -0.13672,5.10547 a 0.653772,0.653772 0 0 1 -0.44726,0.61963 0.653772,0.653772 0 0 1 -0.82666,-0.41357 0.653772,0.653772 0 0 1 0.41308,-0.82666 0.653772,0.653772 0 0 1 0.82715,0.41308 0.653772,0.653772 0 0 1 0.0337,0.20752 z m -0.91504,-2.35351 a 0.52955532,0.52955532 0 0 1 -0.36181,0.48339 0.52955532,0.52955532 0 0 1 -0.66993,-0.33496 0.52955532,0.52955532 0 0 1 0.33496,-0.66943 0.52955532,0.52955532 0 0 1 0.66993,0.33496 0.52955532,0.52955532 0 0 1 0.0269,0.18604 z m -0.0532,11.58837 a 1.3668749,1.3668749 0 0 1 -0.56103,-0.28027 1.5187499,1.5187499 0 0 1 -0.28272,0.6543 1.5187499,1.5187499 0 0 1 0.49024,0.24512 1.5187499,1.5187499 0 0 1 0.35351,-0.61915 z m -0.27002,-6.0581 a 0.9964518,0.9964518 0 0 1 -5e-4,0.0122 0.9964518,0.9964518 0 0 1 -0.68115,0.91797 0.9964518,0.9964518 0 0 1 -1.26025,-0.63037 0.9964518,0.9964518 0 0 1 0.62988,-1.26026 0.9964518,0.9964518 0 0 1 1.26074,0.63037 0.9964518,0.9964518 0 0 1 0.0513,0.33008 z m -0.1665,3.58594 a 1.2301874,1.2301874 0 0 1 -1.04736,-0.52393 1.3668749,1.3668749 0 0 1 -0.31495,0.96045 1.5187499,1.5187499 0 0 1 0.78321,0.3916 1.3668749,1.3668749 0 0 1 0.5791,-0.82812 z m -0.354,-11.49219 a 0.47659978,0.47659978 0 0 1 -0.32569,0.4375 0.47659978,0.47659978 0 0 1 -0.60254,-0.30127 0.47659978,0.47659978 0 0 1 0.30127,-0.60303 0.47659978,0.47659978 0 0 1 0.60303,0.30176 0.47659978,0.47659978 0 0 1 0.0239,0.16504 z m -0.45948,5.52392 a 0.80712592,0.80712592 0 0 1 -5e-4,0.0215 0.80712592,0.80712592 0 0 1 -0.55176,0.73975 0.80712592,0.80712592 0 0 1 -1.02099,-0.51026 0.80712592,0.80712592 0 0 1 0.51074,-1.02099 0.80712592,0.80712592 0 0 1 1.021,0.51025 0.80712592,0.80712592 0 0 1 0.0415,0.25976 z m -0.42138,-7.89844 a 0.38604585,0.38604585 0 0 1 -0.26368,0.3545 0.38604585,0.38604585 0 0 1 -0.48828,-0.24414 0.38604585,0.38604585 0 0 1 0.24414,-0.48829 0.38604585,0.38604585 0 0 1 0.48828,0.24415 0.38604585,0.38604585 0 0 1 0.0195,0.13378 z m -0.52295,5.52296 a 0.653772,0.653772 0 0 1 -0.44678,0.61963 0.653772,0.653772 0 0 1 -0.82715,-0.41358 0.653772,0.653772 0 0 1 0.41358,-0.82715 0.653772,0.653772 0 0 1 0.82714,0.41358 0.653772,0.653772 0 0 1 0.0332,0.20752 z m -0.44776,5.51904 a 0.9964518,0.9964518 0 0 1 -0.68115,0.95947 0.9964518,0.9964518 0 0 1 -1.26074,-0.62988 0.9964518,0.9964518 0 0 1 0.63037,-1.26074 0.9964518,0.9964518 0 0 1 1.26025,0.63037 0.9964518,0.9964518 0 0 1 0.0513,0.30078 z m -0.46679,-7.87256 a 0.52955532,0.52955532 0 0 1 -0.36231,0.4834 0.52955532,0.52955532 0 0 1 -0.66943,-0.33496 0.52955532,0.52955532 0 0 1 0.33447,-0.66992 0.52955532,0.52955532 0 0 1 0.66992,0.33495 0.52955532,0.52955532 0 0 1 0.0274,0.15577 0.52955532,0.52955532 0 0 1 0,0.0308 z m -0.0532,11.58838 a 1.3668749,1.3668749 0 0 1 -0.69677,-0.41065 1.3668749,1.3668749 0 0 1 -0.31153,0.74658 1.5187499,1.5187499 0 0 1 0.6543,0.28321 1.5187499,1.5187499 0 0 1 0.354,-0.61914 z m -0.45947,-6.06885 a 0.80712592,0.80712592 0 0 1 -5e-4,0.0215 0.80712592,0.80712592 0 0 1 -0.55176,0.73975 0.80712592,0.80712592 0 0 1 -1.02099,-0.51025 0.80712592,0.80712592 0 0 1 0.51074,-1.021 0.80712592,0.80712592 0 0 1 1.02099,0.51026 0.80712592,0.80712592 0 0 1 0.0415,0.25976 z m -0.37891,-7.89746 a 0.42893983,0.42893983 0 0 1 -0.29296,0.39404 0.42893983,0.42893983 0 0 1 -0.54249,-0.27099 0.42893983,0.42893983 0 0 1 0.27149,-0.54249 0.42893983,0.42893983 0 0 1 0.54248,0.271 0.42893983,0.42893983 0 0 1 0.0215,0.14844 z m -0.56543,5.52197 a 0.653772,0.653772 0 0 1 -0.44677,0.61963 0.653772,0.653772 0 0 1 -0.82715,-0.41357 0.653772,0.653772 0 0 1 0.41357,-0.82715 0.653772,0.653772 0 0 1 0.82715,0.41357 0.653772,0.653772 0 0 1 0.0332,0.20752 z m -0.44775,5.51905 a 0.9964518,0.9964518 0 0 1 -0.68115,0.95947 0.9964518,0.9964518 0 0 1 -1.26074,-0.62988 0.9964518,0.9964518 0 0 1 0.63037,-1.26075 0.9964518,0.9964518 0 0 1 1.26025,0.63038 0.9964518,0.9964518 0 0 1 0.0513,0.30078 z m -0.46728,-7.87256 a 0.52955532,0.52955532 0 0 1 -0.36182,0.4834 0.52955532,0.52955532 0 0 1 -0.66992,-0.33496 0.52955532,0.52955532 0 0 1 0.33496,-0.66944 0.52955532,0.52955532 0 0 1 0.66992,0.33447 0.52955532,0.52955532 0 0 1 0.0269,0.18653 z m -0.0532,11.58838 a 1.3668749,1.3668749 0 0 1 -0.69629,-0.41016 1.3668749,1.3668749 0 0 1 -0.31103,0.74658 1.5187499,1.5187499 0 0 1 0.65381,0.28272 1.5187499,1.5187499 0 0 1 0.35351,-0.61914 z m -0.45947,-6.08496 a 0.80712592,0.80712592 0 0 1 -0.55176,0.77734 0.80712592,0.80712592 0 0 1 -1.02099,-0.51025 0.80712592,0.80712592 0 0 1 0.51025,-1.021 0.80712592,0.80712592 0 0 1 1.021,0.51025 0.80712592,0.80712592 0 0 1 0.0415,0.24366 z m -0.37842,-7.88135 a 0.42893983,0.42893983 0 0 1 -0.29297,0.39453 0.42893983,0.42893983 0 0 1 -0.54248,-0.27148 0.42893983,0.42893983 0 0 1 0.271,-0.54249 0.42893983,0.42893983 0 0 1 0.54297,0.271 0.42893983,0.42893983 0 0 1 0.0215,0.14844 z m -0.56551,5.52197 a 0.653772,0.653772 0 0 1 -0.44726,0.61963 0.653772,0.653772 0 0 1 -0.82666,-0.41357 0.653772,0.653772 0 0 1 0.41357,-0.82666 0.653772,0.653772 0 0 1 0.82666,0.41308 0.653772,0.653772 0 0 1 0.0337,0.20752 z m -0.91504,-2.35351 a 0.52955532,0.52955532 0 0 1 -0.36181,0.48339 0.52955532,0.52955532 0 0 1 -0.66992,-0.33496 0.52955532,0.52955532 0 0 1 0.33496,-0.66943 0.52955532,0.52955532 0 0 1 0.66992,0.33496 0.52955532,0.52955532 0 0 1 0.0269,0.18604 z m -0.0532,11.58837 a 1.3668749,1.3668749 0 0 1 -0.56103,-0.28027 1.5187499,1.5187499 0 0 1 -0.28272,0.6543 1.5187499,1.5187499 0 0 1 0.49024,0.24512 1.5187499,1.5187499 0 0 1 0.35351,-0.61915 z m -0.27002,-6.0581 a 0.9964518,0.9964518 0 0 1 -5e-4,0.0122 0.9964518,0.9964518 0 0 1 -0.68115,0.91797 0.9964518,0.9964518 0 0 1 -1.26026,-0.63037 0.9964518,0.9964518 0 0 1 0.63038,-1.26026 0.9964518,0.9964518 0 0 1 1.26025,0.63037 0.9964518,0.9964518 0 0 1 0.0513,0.33008 z m -0.16601,3.58594 a 1.2301874,1.2301874 0 0 1 -1.04786,-0.52393 1.3668749,1.3668749 0 0 1 -0.31445,0.96045 1.5187499,1.5187499 0 0 1 0.78272,0.3916 1.3668749,1.3668749 0 0 1 0.57959,-0.82812 z m -0.3545,-11.49219 a 0.47659978,0.47659978 0 0 1 -0.32519,0.4375 0.47659978,0.47659978 0 0 1 -0.60303,-0.30127 0.47659978,0.47659978 0 0 1 0.30127,-0.60303 0.47659978,0.47659978 0 0 1 0.60303,0.30176 0.47659978,0.47659978 0 0 1 0.0239,0.16504 z m -0.45947,5.50781 a 0.80712592,0.80712592 0 0 1 -0.55225,0.77734 0.80712592,0.80712592 0 0 1 -1.0205,-0.51025 0.80712592,0.80712592 0 0 1 0.51025,-1.021 0.80712592,0.80712592 0 0 1 1.021,0.51026 0.80712592,0.80712592 0 0 1 0.0415,0.24365 z m -0.42139,-7.88233 a 0.38604585,0.38604585 0 0 1 -0.26367,0.3545 0.38604585,0.38604585 0 0 1 -0.48828,-0.24414 0.38604585,0.38604585 0 0 1 0.24414,-0.48829 0.38604585,0.38604585 0 0 1 0.48828,0.24415 0.38604585,0.38604585 0 0 1 0.0195,0.13378 z m -0.52246,5.52296 a 0.653772,0.653772 0 0 1 -0.44726,0.61963 0.653772,0.653772 0 0 1 -0.82715,-0.41358 0.653772,0.653772 0 0 1 0.41357,-0.82715 0.653772,0.653772 0 0 1 0.82715,0.41358 0.653772,0.653772 0 0 1 0.0337,0.20752 z m -0.44775,5.54834 a 0.9964518,0.9964518 0 0 1 -5e-4,0.0122 0.9964518,0.9964518 0 0 1 -0.68115,0.91796 0.9964518,0.9964518 0 0 1 -1.26026,-0.62988 0.9964518,0.9964518 0 0 1 0.62989,-1.26074 0.9964518,0.9964518 0 0 1 1.26074,0.63037 0.9964518,0.9964518 0 0 1 0.0513,0.33008 z m -0.46729,-7.90186 a 0.52955532,0.52955532 0 0 1 -0.36181,0.4834 0.52955532,0.52955532 0 0 1 -0.66992,-0.33496 0.52955532,0.52955532 0 0 1 0.33496,-0.66992 0.52955532,0.52955532 0 0 1 0.66943,0.33495 0.52955532,0.52955532 0 0 1 0.0273,0.15577 0.52955532,0.52955532 0 0 1 0,0.0308 z m -0.0532,11.58838 a 1.3668749,1.3668749 0 0 1 -0.69678,-0.41065 1.3668749,1.3668749 0 0 1 -0.31152,0.74658 1.5187499,1.5187499 0 0 1 0.65479,0.2837 1.5187499,1.5187499 0 0 1 0.35351,-0.61963 z m -0.45947,-6.06885 a 0.80712592,0.80712592 0 0 1 -4.9e-4,0.0215 0.80712592,0.80712592 0 0 1 -0.55176,0.73975 0.80712592,0.80712592 0 0 1 -1.02099,-0.51025 0.80712592,0.80712592 0 0 1 0.51074,-1.021 0.80712592,0.80712592 0 0 1 1.021,0.51026 0.80712592,0.80712592 0 0 1 0.0415,0.25976 z m -0.37842,-7.89746 a 0.42893983,0.42893983 0 0 1 -0.29346,0.39404 0.42893983,0.42893983 0 0 1 -0.54248,-0.27099 0.42893983,0.42893983 0 0 1 0.27149,-0.54249 0.42893983,0.42893983 0 0 1 0.54248,0.271 0.42893983,0.42893983 0 0 1 0.022,0.14844 z m -0.56592,5.52197 a 0.653772,0.653772 0 0 1 -0.44677,0.61963 0.653772,0.653772 0 0 1 -0.82715,-0.41357 0.653772,0.653772 0 0 1 0.41357,-0.82715 0.653772,0.653772 0 0 1 0.82715,0.41357 0.653772,0.653772 0 0 1 0.0332,0.20752 z m -0.44775,5.51905 a 0.9964518,0.9964518 0 0 1 -0.68115,0.95947 0.9964518,0.9964518 0 0 1 -1.26075,-0.62988 0.9964518,0.9964518 0 0 1 0.63038,-1.26075 0.9964518,0.9964518 0 0 1 1.26025,0.63038 0.9964518,0.9964518 0 0 1 0.0513,0.30078 z m -0.4668,-7.87207 a 0.52955532,0.52955532 0 0 1 -0.3623,0.48291 0.52955532,0.52955532 0 0 1 -0.66992,-0.33496 0.52955532,0.52955532 0 0 1 0.33496,-0.66944 0.52955532,0.52955532 0 0 1 0.66992,0.33447 0.52955532,0.52955532 0 0 1 0.0273,0.15625 0.52955532,0.52955532 0 0 1 0,0.0308 z m -0.0532,11.58838 a 1.3668749,1.3668749 0 0 1 -0.69678,-0.41065 1.3668749,1.3668749 0 0 1 -0.31103,0.74609 1.5187499,1.5187499 0 0 1 0.6538,0.28321 1.5187499,1.5187499 0 0 1 0.35401,-0.61865 z m -0.45996,-6.08545 a 0.80712592,0.80712592 0 0 1 -0.55176,0.77734 0.80712592,0.80712592 0 0 1 -1.021,-0.51025 0.80712592,0.80712592 0 0 1 0.51075,-1.021 0.80712592,0.80712592 0 0 1 1.0205,0.51025 0.80712592,0.80712592 0 0 1 0.0415,0.24366 z m -0.37842,-7.88135 a 0.42893983,0.42893983 0 0 1 -0.29297,0.39453 0.42893983,0.42893983 0 0 1 -0.54248,-0.27148 0.42893983,0.42893983 0 0 1 0.271,-0.54249 0.42893983,0.42893983 0 0 1 0.54297,0.271 0.42893983,0.42893983 0 0 1 0.0215,0.14844 z m -0.56543,5.52197 a 0.653772,0.653772 0 0 1 -0.44678,0.61963 0.653772,0.653772 0 0 1 -0.82715,-0.41357 0.653772,0.653772 0 0 1 0.41358,-0.82666 0.653772,0.653772 0 0 1 0.82666,0.41308 0.653772,0.653772 0 0 1 0.0337,0.20752 z m -0.91504,-2.35351 a 0.52955532,0.52955532 0 0 1 -0.36182,0.48339 0.52955532,0.52955532 0 0 1 -0.66992,-0.33496 0.52955532,0.52955532 0 0 1 0.33496,-0.66943 0.52955532,0.52955532 0 0 1 0.66993,0.33496 0.52955532,0.52955532 0 0 1 0.0269,0.18604 z m -0.0532,11.58837 a 1.3668749,1.3668749 0 0 1 -0.56055,-0.28027 1.5187499,1.5187499 0 0 1 -0.2832,0.6543 1.5187499,1.5187499 0 0 1 0.49023,0.24512 1.5187499,1.5187499 0 0 1 0.35352,-0.61915 z m -0.27002,-6.08789 a 0.9964518,0.9964518 0 0 1 -0.68164,0.95996 0.9964518,0.9964518 0 0 1 -1.26026,-0.63037 0.9964518,0.9964518 0 0 1 0.63038,-1.26025 0.9964518,0.9964518 0 0 1 1.26025,0.63037 0.9964518,0.9964518 0 0 1 0.0513,0.30029 z m -0.16602,3.61573 a 1.2301874,1.2301874 0 0 1 -1.04785,-0.52442 1.3668749,1.3668749 0 0 1 -0.31445,0.96094 1.5187499,1.5187499 0 0 1 0.78271,0.3916 1.3668749,1.3668749 0 0 1 0.57959,-0.82812 z m -0.354,-11.49171 a 0.47659978,0.47659978 0 0 1 -0.32568,0.43702 0.47659978,0.47659978 0 0 1 -0.60303,-0.30127 0.47659978,0.47659978 0 0 1 0.30127,-0.60303 0.47659978,0.47659978 0 0 1 0.60303,0.30176 0.47659978,0.47659978 0 0 1 0.0244,0.16552 z m -0.45996,5.50733 a 0.80712592,0.80712592 0 0 1 -0.55176,0.77734 0.80712592,0.80712592 0 0 1 -1.021,-0.51025 0.80712592,0.80712592 0 0 1 0.51026,-1.021 0.80712592,0.80712592 0 0 1 1.02099,0.51026 0.80712592,0.80712592 0 0 1 0.0415,0.24365 z m -0.42139,-7.88233 a 0.38604585,0.38604585 0 0 1 -0.26367,0.3545 0.38604585,0.38604585 0 0 1 -0.48828,-0.24414 0.38604585,0.38604585 0 0 1 0.24414,-0.48829 0.38604585,0.38604585 0 0 1 0.48828,0.24415 0.38604585,0.38604585 0 0 1 0.0195,0.13378 z m -0.52246,5.52296 a 0.653772,0.653772 0 0 1 -0.44727,0.61963 0.653772,0.653772 0 0 1 -0.82666,-0.41358 0.653772,0.653772 0 0 1 0.41309,-0.82715 0.653772,0.653772 0 0 1 0.82715,0.41358 0.653772,0.653772 0 0 1 0.0337,0.20752 z m -0.44775,5.54834 a 0.9964518,0.9964518 0 0 1 -5e-4,0.0122 0.9964518,0.9964518 0 0 1 -0.68116,0.91796 0.9964518,0.9964518 0 0 1 -1.26025,-0.62988 0.9964518,0.9964518 0 0 1 0.62988,-1.26074 0.9964518,0.9964518 0 0 1 1.26075,0.63037 0.9964518,0.9964518 0 0 1 0.0513,0.33008 z m -0.46729,-7.90186 a 0.52955532,0.52955532 0 0 1 -0.36181,0.4834 0.52955532,0.52955532 0 0 1 -0.66993,-0.33496 0.52955532,0.52955532 0 0 1 0.33496,-0.66992 0.52955532,0.52955532 0 0 1 0.66993,0.33495 0.52955532,0.52955532 0 0 1 0.0268,0.18653 z m -0.0532,11.58838 a 1.3668749,1.3668749 0 0 1 -0.69678,-0.41065 1.3668749,1.3668749 0 0 1 -0.31152,0.74658 1.5187499,1.5187499 0 0 1 0.65478,0.28321 1.5187499,1.5187499 0 0 1 0.35352,-0.61914 z m -0.45947,-6.06885 a 0.80712592,0.80712592 0 0 1 -5e-4,0.0215 0.80712592,0.80712592 0 0 1 -0.55176,0.73975 0.80712592,0.80712592 0 0 1 -1.021,-0.51025 0.80712592,0.80712592 0 0 1 0.51074,-1.021 0.80712592,0.80712592 0 0 1 1.021,0.51026 0.80712592,0.80712592 0 0 1 0.0415,0.25976 z m -0.37842,-7.89746 a 0.42893983,0.42893983 0 0 1 -0.29346,0.39404 0.42893983,0.42893983 0 0 1 -0.54248,-0.27099 0.42893983,0.42893983 0 0 1 0.27148,-0.54249 0.42893983,0.42893983 0 0 1 0.54249,0.271 0.42893983,0.42893983 0 0 1 0.022,0.14844 z m -0.56592,5.52197 a 0.653772,0.653772 0 0 1 -0.44678,0.61963 0.653772,0.653772 0 0 1 -0.82715,-0.41357 0.653772,0.653772 0 0 1 0.41358,-0.82715 0.653772,0.653772 0 0 1 0.82715,0.41357 0.653772,0.653772 0 0 1 0.0332,0.20752 z m -0.44775,5.51905 a 0.9964518,0.9964518 0 0 1 -0.68116,0.95947 0.9964518,0.9964518 0 0 1 -1.26074,-0.62988 0.9964518,0.9964518 0 0 1 0.63037,-1.26075 0.9964518,0.9964518 0 0 1 1.26026,0.63038 0.9964518,0.9964518 0 0 1 0.0513,0.30078 z m -0.4668,-7.87207 a 0.52955532,0.52955532 0 0 1 -0.36231,0.48291 0.52955532,0.52955532 0 0 1 -0.66943,-0.33496 0.52955532,0.52955532 0 0 1 0.33496,-0.66944 0.52955532,0.52955532 0 0 1 0.66944,0.33447 0.52955532,0.52955532 0 0 1 0.0273,0.15625 0.52955532,0.52955532 0 0 1 0,0.0308 z m -0.0532,11.58789 a 1.3668749,1.3668749 0 0 1 -0.69678,-0.41065 1.3668749,1.3668749 0 0 1 -0.31103,0.74658 1.5187499,1.5187499 0 0 1 0.65429,0.2837 1.5187499,1.5187499 0 0 1 0.35352,-0.61963 z m -0.45947,-6.06885 a 0.80712592,0.80712592 0 0 1 -5e-4,0.0215 0.80712592,0.80712592 0 0 1 -0.55176,0.73975 0.80712592,0.80712592 0 0 1 -1.021,-0.51026 0.80712592,0.80712592 0 0 1 0.51075,-1.02099 0.80712592,0.80712592 0 0 1 1.02099,0.51025 0.80712592,0.80712592 0 0 1 0.0415,0.25977 z m -0.37891,-7.89746 a 0.42893983,0.42893983 0 0 1 -0.29297,0.39453 0.42893983,0.42893983 0 0 1 -0.54248,-0.27148 0.42893983,0.42893983 0 0 1 0.27149,-0.54249 0.42893983,0.42893983 0 0 1 0.54248,0.271 0.42893983,0.42893983 0 0 1 0.0215,0.14844 z m -0.56543,5.52197 a 0.653772,0.653772 0 0 1 -0.44678,0.61963 0.653772,0.653772 0 0 1 -0.82714,-0.41357 0.653772,0.653772 0 0 1 0.41357,-0.82666 0.653772,0.653772 0 0 1 0.82715,0.41308 0.653772,0.653772 0 0 1 0.0332,0.20752 z m -0.91504,-2.35351 a 0.52955532,0.52955532 0 0 1 -0.36181,0.48339 0.52955532,0.52955532 0 0 1 -0.66993,-0.33496 0.52955532,0.52955532 0 0 1 0.33496,-0.66943 0.52955532,0.52955532 0 0 1 0.66993,0.33496 0.52955532,0.52955532 0 0 1 0.0269,0.18604 z m -0.0532,11.58837 a 1.3668749,1.3668749 0 0 1 -0.56055,-0.28027 1.5187499,1.5187499 0 0 1 -0.2832,0.6543 1.5187499,1.5187499 0 0 1 0.49024,0.24512 1.5187499,1.5187499 0 0 1 0.35351,-0.61915 z m -0.27002,-6.08789 a 0.9964518,0.9964518 0 0 1 -0.68164,0.95996 0.9964518,0.9964518 0 0 1 -1.26025,-0.63037 0.9964518,0.9964518 0 0 1 0.63037,-1.26025 0.9964518,0.9964518 0 0 1 1.26025,0.63037 0.9964518,0.9964518 0 0 1 0.0513,0.30029 z m -0.16601,3.61573 a 1.2301874,1.2301874 0 0 1 -1.04786,-0.52442 1.3668749,1.3668749 0 0 1 -0.31445,0.96094 1.5187499,1.5187499 0 0 1 0.78272,0.3916 1.3668749,1.3668749 0 0 1 0.57959,-0.82812 z m -0.35401,-11.4917 a 0.47659978,0.47659978 0 0 1 -0.32568,0.43701 0.47659978,0.47659978 0 0 1 -0.60303,-0.30127 0.47659978,0.47659978 0 0 1 0.30127,-0.60303 0.47659978,0.47659978 0 0 1 0.60303,0.30176 0.47659978,0.47659978 0 0 1 0.0244,0.16553 z m -0.45996,5.50732 a 0.80712592,0.80712592 0 0 1 -0.55176,0.77734 0.80712592,0.80712592 0 0 1 -1.02099,-0.51025 0.80712592,0.80712592 0 0 1 0.51025,-1.021 0.80712592,0.80712592 0 0 1 1.021,0.51026 0.80712592,0.80712592 0 0 1 0.0415,0.24365 z m -0.42139,-7.88232 a 0.38604585,0.38604585 0 0 1 -0.26367,0.35449 0.38604585,0.38604585 0 0 1 -0.48828,-0.24414 0.38604585,0.38604585 0 0 1 0.24414,-0.48828 0.38604585,0.38604585 0 0 1 0.48828,0.24414 0.38604585,0.38604585 0 0 1 0.0195,0.13379 z m -0.52246,5.52295 a 0.653772,0.653772 0 0 1 -0.44726,0.61963 0.653772,0.653772 0 0 1 -0.82666,-0.41358 0.653772,0.653772 0 0 1 0.41357,-0.82715 0.653772,0.653772 0 0 1 0.82666,0.41358 0.653772,0.653772 0 0 1 0.0337,0.20752 z m -0.44775,5.54834 a 0.9964518,0.9964518 0 0 1 -5e-4,0.0122 0.9964518,0.9964518 0 0 1 -0.68115,0.91796 0.9964518,0.9964518 0 0 1 -1.26026,-0.62988 0.9964518,0.9964518 0 0 1 0.63037,-1.26074 0.9964518,0.9964518 0 0 1 1.26026,0.63037 0.9964518,0.9964518 0 0 1 0.0513,0.33008 z m -0.46729,-7.90186 a 0.52955532,0.52955532 0 0 1 -0.36181,0.4834 0.52955532,0.52955532 0 0 1 -0.66992,-0.33496 0.52955532,0.52955532 0 0 1 0.33496,-0.66992 0.52955532,0.52955532 0 0 1 0.66992,0.33496 0.52955532,0.52955532 0 0 1 0.0268,0.18652 z m -0.0532,11.58838 a 1.3668749,1.3668749 0 0 1 -0.69628,-0.41016 1.3668749,1.3668749 0 0 1 -0.31153,0.7461 1.5187499,1.5187499 0 0 1 0.6543,0.2832 1.5187499,1.5187499 0 0 1 0.35351,-0.61914 z m -0.45947,-6.08496 a 0.80712592,0.80712592 0 0 1 -0.55176,0.77734 0.80712592,0.80712592 0 0 1 -1.02099,-0.51025 0.80712592,0.80712592 0 0 1 0.51025,-1.021 0.80712592,0.80712592 0 0 1 1.021,0.51026 0.80712592,0.80712592 0 0 1 0.0415,0.24365 z m -0.37842,-7.88135 a 0.42893983,0.42893983 0 0 1 -0.29296,0.39404 0.42893983,0.42893983 0 0 1 -0.54297,-0.27099 0.42893983,0.42893983 0 0 1 0.27148,-0.54248 0.42893983,0.42893983 0 0 1 0.54248,0.27099 0.42893983,0.42893983 0 0 1 0.022,0.14844 z m -0.56543,5.52197 a 0.653772,0.653772 0 0 1 -0.44726,0.61963 0.653772,0.653772 0 0 1 -0.82715,-0.41357 0.653772,0.653772 0 0 1 0.41357,-0.82715 0.653772,0.653772 0 0 1 0.82715,0.41357 0.653772,0.653772 0 0 1 0.0337,0.20752 z m -0.44775,5.54834 a 0.9964518,0.9964518 0 0 1 -5e-4,0.0127 0.9964518,0.9964518 0 0 1 -0.68115,0.91748 0.9964518,0.9964518 0 0 1 -1.10547,-0.33886 v -1.21338 a 0.9964518,0.9964518 0 0 1 0.4751,-0.33838 0.9964518,0.9964518 0 0 1 1.26074,0.63037 0.9964518,0.9964518 0 0 1 0.0513,0.33008 z m -0.46728,-7.90136 a 0.52955532,0.52955532 0 0 1 -0.36182,0.48291 0.52955532,0.52955532 0 0 1 -0.66992,-0.33496 0.52955532,0.52955532 0 0 1 0.33496,-0.66944 0.52955532,0.52955532 0 0 1 0.66943,0.33447 0.52955532,0.52955532 0 0 1 0.0273,0.15625 0.52955532,0.52955532 0 0 1 0,0.0308 z m -0.0532,11.58789 a 1.3668749,1.3668749 0 0 1 -0.69678,-0.41065 1.3668749,1.3668749 0 0 1 -0.31104,0.74658 1.5187499,1.5187499 0 0 1 0.6543,0.2837 1.5187499,1.5187499 0 0 1 0.35352,-0.61963 z m -0.45948,-6.06885 a 0.80712592,0.80712592 0 0 1 -5e-4,0.0215 0.80712592,0.80712592 0 0 1 -0.55175,0.73975 0.80712592,0.80712592 0 0 1 -0.25489,0.0415 v -1.61428 a 0.80712592,0.80712592 0 0 1 0.76563,0.55175 0.80712592,0.80712592 0 0 1 0.0415,0.25977 z m -0.37841,-7.89746 a 0.42893983,0.42893983 0 0 1 -0.29346,0.39453 0.42893983,0.42893983 0 0 1 -0.13526,0.022 v -0.85791 a 0.42893983,0.42893983 0 0 1 0.40674,0.29297 0.42893983,0.42893983 0 0 1 0.022,0.14844 z"
       style="vector-effect:non-scaling-stroke;fill:#000000;fill-opacity:1;stroke:none;stroke-width:1;stroke-miterlimit:4;stroke-dasharray:none;stroke-opacity:1;stop-color:#000000"
       id="path1030" />
    <path
       id="path1032"
       style="vector-effect:non-scaling-stroke;fill:#000000;fill-opacity:1;stroke:none;stroke-width:1;stroke-miterlimit:4;stroke-dasharray:none;stroke-opacity:1;stop-color:#000000"
       d="m 410.49451,19.476316 v -3.66797 a 1.5187499,1.5187499 0 0 0 -0.12256,0.083 1.5187499,1.5187499 0 0 0 -0.24512,-0.49024 1.5187499,1.5187499 0 0 0 0.36768,-0.16211 V 7.9025762 a 1.5187499,1.5187499 0 0 0 -0.12256,0.083 1.5187499,1.5187499 0 0 0 -0.24512,-0.49024 1.5187499,1.5187499 0 0 0 0.36768,-0.16211 v -7.33642 a 1.5187499,1.5187499 0 0 0 -0.12256,0.083 1.5187499,1.5187499 0 0 0 -0.24512,-0.49023 1.5187499,1.5187499 0 0 0 0.36768,-0.16211 V -7.908964 a 1.5187499,1.5187499 0 0 0 -0.12256,0.083 1.5187499,1.5187499 0 0 0 -0.24512,-0.49023 1.5187499,1.5187499 0 0 0 0.36768,-0.16211 v -3.66797 h -3.48584 a 1.3668749,1.3668749 0 0 0 0.19482,0.22022 1.3668749,1.3668749 0 0 0 -1.16797,0.92822 1.3668749,1.3668749 0 0 0 0.37696,1.44336 1.3668749,1.3668749 0 0 0 -1.16749,0.92871 1.3668749,1.3668749 0 0 0 0.54688,1.57471 1.2301874,1.2301874 0 0 0 -1.20801,0.84033 1.2301874,1.2301874 0 0 0 0.77832,1.55566 1.2301874,1.2301874 0 0 0 1.39649,-0.46142 1.3668749,1.3668749 0 0 0 0.44482,1.09619 1.3668749,1.3668749 0 0 0 -1.16797,0.92822 1.3668749,1.3668749 0 0 0 0.37696,1.4433602 1.3668749,1.3668749 0 0 0 -1.16749,0.92871 1.3668749,1.3668749 0 0 0 0.54688,1.57471 1.2301874,1.2301874 0 0 0 -1.20801,0.83984 1.2301874,1.2301874 0 0 0 0.77832,1.55615 1.2301874,1.2301874 0 0 0 1.39648,-0.46142 1.3668749,1.3668749 0 0 0 0.44483,1.09619 1.3668749,1.3668749 0 0 0 -1.16797,0.92822 1.3668749,1.3668749 0 0 0 0.37744,1.44336 1.3668749,1.3668749 0 0 0 -1.16797,0.92823 1.3668749,1.3668749 0 0 0 0.54688,1.57519 1.2301874,1.2301874 0 0 0 -1.20801,0.8398398 1.2301874,1.2301874 0 0 0 0.77832,1.55616 1.2301874,1.2301874 0 0 0 1.39648,-0.46143 1.3668749,1.3668749 0 0 0 0.44434,1.0957 1.3668749,1.3668749 0 0 0 -1.16748,0.92871 1.3668749,1.3668749 0 0 0 0.37744,1.44336 1.3668749,1.3668749 0 0 0 -1.16797,0.92823 1.3668749,1.3668749 0 0 0 0.5459,1.5747 1.2301874,1.2301874 0 0 0 -1.20703,0.84034 1.2301874,1.2301874 0 0 0 0.77832,1.55615 1.2301874,1.2301874 0 0 0 1.39648,-0.46192 1.3668749,1.3668749 0 0 0 0.24903,0.87598 z m -4.92774,0 a 0.9964518,0.9964518 0 0 0 -0.29101,-0.15479 0.9964518,0.9964518 0 0 0 -0.92237,0.15479 z m -2.1709,0 a 0.80712592,0.80712592 0 0 0 -0.55175,-0.76563 0.80712592,0.80712592 0 0 0 -1.021,0.51026 0.80712592,0.80712592 0 0 0 -0.0415,0.25537 z m -8.28369,0 a 0.42893983,0.42893983 0 0 0 -0.29345,-0.40674 0.42893983,0.42893983 0 0 0 -0.54249,0.271 0.42893983,0.42893983 0 0 0 -0.022,0.13574 z m 5.10547,-0.13672 a 0.653772,0.653772 0 0 0 0.61963,-0.44727 0.653772,0.653772 0 0 0 -0.41357,-0.82666 0.653772,0.653772 0 0 0 -0.82666,0.41309 0.653772,0.653772 0 0 0 0.41308,0.82715 0.653772,0.653772 0 0 0 0.20752,0.0337 z m -2.35351,-0.91504 a 0.52955532,0.52955532 0 0 0 0.48339,-0.36182 0.52955532,0.52955532 0 0 0 -0.33496,-0.66992 0.52955532,0.52955532 0 0 0 -0.66943,0.33496 0.52955532,0.52955532 0 0 0 0.33496,0.66993 0.52955532,0.52955532 0 0 0 0.18604,0.0269 z m 11.58837,-0.0532 a 1.3668749,1.3668749 0 0 0 -0.28027,-0.56103 1.5187499,1.5187499 0 0 0 0.6543,-0.28272 1.5187499,1.5187499 0 0 0 0.24512,0.49024 1.5187499,1.5187499 0 0 0 -0.61915,0.35351 z m -6.0581,-0.27002 a 0.9964518,0.9964518 0 0 0 0.0122,-5e-4 0.9964518,0.9964518 0 0 0 0.91797,-0.68115 0.9964518,0.9964518 0 0 0 -0.63037,-1.26025 0.9964518,0.9964518 0 0 0 -1.26026,0.62988 0.9964518,0.9964518 0 0 0 0.63037,1.26074 0.9964518,0.9964518 0 0 0 0.33008,0.0513 z m 3.58594,-0.1665 a 1.2301874,1.2301874 0 0 0 -0.52393,-1.04737 1.3668749,1.3668749 0 0 0 0.96045,-0.31494 1.5187499,1.5187499 0 0 0 0.3916,0.78321 1.3668749,1.3668749 0 0 0 -0.82812,0.5791 z m -11.49219,-0.35403 a 0.47659978,0.47659978 0 0 0 0.4375,-0.32568 0.47659978,0.47659978 0 0 0 -0.30127,-0.60254 0.47659978,0.47659978 0 0 0 -0.60303,0.30127 0.47659978,0.47659978 0 0 0 0.30176,0.60303 0.47659978,0.47659978 0 0 0 0.16504,0.0239 z m 5.52392,-0.45947 a 0.80712592,0.80712592 0 0 0 0.0215,-5e-4 0.80712592,0.80712592 0 0 0 0.73975,-0.55176 0.80712592,0.80712592 0 0 0 -0.51026,-1.02099 0.80712592,0.80712592 0 0 0 -1.02099,0.51074 0.80712592,0.80712592 0 0 0 0.51025,1.021 0.80712592,0.80712592 0 0 0 0.25976,0.0415 z m -7.89844,-0.42139 a 0.38604585,0.38604585 0 0 0 0.3545,-0.26367 0.38604585,0.38604585 0 0 0 -0.24414,-0.48828 0.38604585,0.38604585 0 0 0 -0.48829,0.24414 0.38604585,0.38604585 0 0 0 0.24415,0.48828 0.38604585,0.38604585 0 0 0 0.13378,0.0195 z m 5.52296,-0.52294 a 0.653772,0.653772 0 0 0 0.61963,-0.44678 0.653772,0.653772 0 0 0 -0.41358,-0.82715 0.653772,0.653772 0 0 0 -0.82715,0.41357 0.653772,0.653772 0 0 0 0.41358,0.82715 0.653772,0.653772 0 0 0 0.20752,0.0332 z m 5.51904,-0.44776 a 0.9964518,0.9964518 0 0 0 0.95947,-0.68115 0.9964518,0.9964518 0 0 0 -0.62988,-1.26074 0.9964518,0.9964518 0 0 0 -1.26074,0.63037 0.9964518,0.9964518 0 0 0 0.63037,1.26025 0.9964518,0.9964518 0 0 0 0.30078,0.0513 z m -7.87256,-0.4668 a 0.52955532,0.52955532 0 0 0 0.4834,-0.3623 0.52955532,0.52955532 0 0 0 -0.33496,-0.66943 0.52955532,0.52955532 0 0 0 -0.66992,0.33447 0.52955532,0.52955532 0 0 0 0.33495,0.66992 0.52955532,0.52955532 0 0 0 0.15577,0.0273 0.52955532,0.52955532 0 0 0 0.0308,0 z m 11.58838,-0.0532 a 1.3668749,1.3668749 0 0 0 -0.41065,-0.69678 1.3668749,1.3668749 0 0 0 0.74658,-0.31152 1.5187499,1.5187499 0 0 0 0.28321,0.6543 1.5187499,1.5187499 0 0 0 -0.61914,0.354 z m -6.06885,-0.45947 a 0.80712592,0.80712592 0 0 0 0.0215,-5e-4 0.80712592,0.80712592 0 0 0 0.73975,-0.55176 0.80712592,0.80712592 0 0 0 -0.51025,-1.021 0.80712592,0.80712592 0 0 0 -1.021,0.51075 0.80712592,0.80712592 0 0 0 0.51026,1.02099 0.80712592,0.80712592 0 0 0 0.25976,0.0415 z m -7.89746,-0.37891 a 0.42893983,0.42893983 0 0 0 0.39404,-0.29297 0.42893983,0.42893983 0 0 0 -0.27099,-0.54248 0.42893983,0.42893983 0 0 0 -0.54249,0.27149 0.42893983,0.42893983 0 0 0 0.271,0.54248 0.42893983,0.42893983 0 0 0 0.14844,0.0215 z m 5.52197,-0.56543 a 0.653772,0.653772 0 0 0 0.61963,-0.44677 0.653772,0.653772 0 0 0 -0.41357,-0.82715 0.653772,0.653772 0 0 0 -0.82715,0.41357 0.653772,0.653772 0 0 0 0.41357,0.82715 0.653772,0.653772 0 0 0 0.20752,0.0332 z m 5.51905,-0.44775 a 0.9964518,0.9964518 0 0 0 0.95947,-0.68115 0.9964518,0.9964518 0 0 0 -0.62988,-1.26075 0.9964518,0.9964518 0 0 0 -1.26075,0.63038 0.9964518,0.9964518 0 0 0 0.63038,1.26025 0.9964518,0.9964518 0 0 0 0.30078,0.0513 z m -7.87256,-0.46729 a 0.52955532,0.52955532 0 0 0 0.4834,-0.36181 0.52955532,0.52955532 0 0 0 -0.33496,-0.66992 0.52955532,0.52955532 0 0 0 -0.66944,0.33496 0.52955532,0.52955532 0 0 0 0.33447,0.66992 0.52955532,0.52955532 0 0 0 0.18653,0.0269 z m 11.58838,-0.0532 a 1.3668749,1.3668749 0 0 0 -0.41016,-0.69629 1.3668749,1.3668749 0 0 0 0.74658,-0.31103 1.5187499,1.5187499 0 0 0 0.28272,0.65381 1.5187499,1.5187499 0 0 0 -0.61914,0.35351 z m -6.08496,-0.45947 a 0.80712592,0.80712592 0 0 0 0.77734,-0.55176 0.80712592,0.80712592 0 0 0 -0.51025,-1.021 0.80712592,0.80712592 0 0 0 -1.021,0.51026 0.80712592,0.80712592 0 0 0 0.51025,1.02099 0.80712592,0.80712592 0 0 0 0.24366,0.0415 z m -7.88135,-0.37842 a 0.42893983,0.42893983 0 0 0 0.39453,-0.29297 0.42893983,0.42893983 0 0 0 -0.27148,-0.54248 0.42893983,0.42893983 0 0 0 -0.54249,0.271 0.42893983,0.42893983 0 0 0 0.271,0.54297 0.42893983,0.42893983 0 0 0 0.14844,0.0215 z m 5.52197,-0.56543 a 0.653772,0.653772 0 0 0 0.61963,-0.44726 0.653772,0.653772 0 0 0 -0.41357,-0.82666 0.653772,0.653772 0 0 0 -0.82666,0.41357 0.653772,0.653772 0 0 0 0.41308,0.82666 0.653772,0.653772 0 0 0 0.20752,0.0337 z m -2.35351,-0.91504 a 0.52955532,0.52955532 0 0 0 0.48339,-0.36181 0.52955532,0.52955532 0 0 0 -0.33496,-0.6699298 0.52955532,0.52955532 0 0 0 -0.66943,0.3349598 0.52955532,0.52955532 0 0 0 0.33496,0.66993 0.52955532,0.52955532 0 0 0 0.18604,0.0269 z m 11.58837,-0.0532 a 1.3668749,1.3668749 0 0 0 -0.28027,-0.56104 1.5187499,1.5187499 0 0 0 0.6543,-0.28271 1.5187499,1.5187499 0 0 0 0.24512,0.49023 1.5187499,1.5187499 0 0 0 -0.61915,0.35352 z m -6.0581,-0.27002 a 0.9964518,0.9964518 0 0 0 0.0122,-5e-4 0.9964518,0.9964518 0 0 0 0.91797,-0.6811498 0.9964518,0.9964518 0 0 0 -0.63037,-1.26026 0.9964518,0.9964518 0 0 0 -1.26026,0.63037 0.9964518,0.9964518 0 0 0 0.63037,1.2602598 0.9964518,0.9964518 0 0 0 0.33008,0.0513 z m 3.58594,-0.16602 a 1.2301874,1.2301874 0 0 0 -0.52393,-1.0478498 1.3668749,1.3668749 0 0 0 0.96045,-0.31445 1.5187499,1.5187499 0 0 0 0.3916,0.78271 1.3668749,1.3668749 0 0 0 -0.82812,0.5795898 z m -11.49219,-0.35455 a 0.47659978,0.47659978 0 0 0 0.4375,-0.3251898 0.47659978,0.47659978 0 0 0 -0.30127,-0.60303 0.47659978,0.47659978 0 0 0 -0.60303,0.30127 0.47659978,0.47659978 0 0 0 0.30176,0.6030298 0.47659978,0.47659978 0 0 0 0.16504,0.0239 z m 5.50781,-0.4594698 a 0.80712592,0.80712592 0 0 0 0.77734,-0.55225 0.80712592,0.80712592 0 0 0 -0.51025,-1.0205 0.80712592,0.80712592 0 0 0 -1.021,0.51025 0.80712592,0.80712592 0 0 0 0.51026,1.021 0.80712592,0.80712592 0 0 0 0.24365,0.0415 z m -7.88233,-0.42139 a 0.38604585,0.38604585 0 0 0 0.3545,-0.26367 0.38604585,0.38604585 0 0 0 -0.24414,-0.48828 0.38604585,0.38604585 0 0 0 -0.48829,0.24414 0.38604585,0.38604585 0 0 0 0.24415,0.48828 0.38604585,0.38604585 0 0 0 0.13378,0.0195 z m 5.52296,-0.52246 a 0.653772,0.653772 0 0 0 0.61963,-0.44726 0.653772,0.653772 0 0 0 -0.41358,-0.82715 0.653772,0.653772 0 0 0 -0.82715,0.41357 0.653772,0.653772 0 0 0 0.41358,0.82715 0.653772,0.653772 0 0 0 0.20752,0.0337 z m 5.54834,-0.44775 a 0.9964518,0.9964518 0 0 0 0.0122,-5e-4 0.9964518,0.9964518 0 0 0 0.91796,-0.68115 0.9964518,0.9964518 0 0 0 -0.62988,-1.26026 0.9964518,0.9964518 0 0 0 -1.26074,0.62988 0.9964518,0.9964518 0 0 0 0.63037,1.26075 0.9964518,0.9964518 0 0 0 0.33008,0.0513 z m -7.90186,-0.46729 a 0.52955532,0.52955532 0 0 0 0.4834,-0.36181 0.52955532,0.52955532 0 0 0 -0.33496,-0.66993 0.52955532,0.52955532 0 0 0 -0.66992,0.33497 0.52955532,0.52955532 0 0 0 0.33495,0.66943 0.52955532,0.52955532 0 0 0 0.15577,0.0273 0.52955532,0.52955532 0 0 0 0.0308,0 z m 11.58838,-0.0532 a 1.3668749,1.3668749 0 0 0 -0.41065,-0.69678 1.3668749,1.3668749 0 0 0 0.74658,-0.31152 1.5187499,1.5187499 0 0 0 0.2837,0.65478 1.5187499,1.5187499 0 0 0 -0.61963,0.35352 z m -6.06885,-0.45947 a 0.80712592,0.80712592 0 0 0 0.0215,-4.9e-4 0.80712592,0.80712592 0 0 0 0.73975,-0.55176 0.80712592,0.80712592 0 0 0 -0.51025,-1.02099 0.80712592,0.80712592 0 0 0 -1.021,0.51074 0.80712592,0.80712592 0 0 0 0.51026,1.02099 0.80712592,0.80712592 0 0 0 0.25976,0.0415 z m -7.89746,-0.37842 a 0.42893983,0.42893983 0 0 0 0.39404,-0.29346 0.42893983,0.42893983 0 0 0 -0.27099,-0.54248 0.42893983,0.42893983 0 0 0 -0.54249,0.27149 0.42893983,0.42893983 0 0 0 0.271,0.54248 0.42893983,0.42893983 0 0 0 0.14844,0.022 z m 5.52197,-0.56592 a 0.653772,0.653772 0 0 0 0.61963,-0.44678 0.653772,0.653772 0 0 0 -0.41357,-0.82714 0.653772,0.653772 0 0 0 -0.82715,0.41357 0.653772,0.653772 0 0 0 0.41357,0.82715 0.653772,0.653772 0 0 0 0.20752,0.0332 z m 5.51905,-0.44775 a 0.9964518,0.9964518 0 0 0 0.95947,-0.68115 0.9964518,0.9964518 0 0 0 -0.62988,-1.26075 0.9964518,0.9964518 0 0 0 -1.26075,0.63037 0.9964518,0.9964518 0 0 0 0.63038,1.26026 0.9964518,0.9964518 0 0 0 0.30078,0.0513 z m -7.87207,-0.4668 a 0.52955532,0.52955532 0 0 0 0.48291,-0.3623 0.52955532,0.52955532 0 0 0 -0.33496,-0.66993 0.52955532,0.52955532 0 0 0 -0.66944,0.33497 0.52955532,0.52955532 0 0 0 0.33447,0.66992 0.52955532,0.52955532 0 0 0 0.15625,0.0273 0.52955532,0.52955532 0 0 0 0.0308,0 z m 11.58838,-0.0532 a 1.3668749,1.3668749 0 0 0 -0.41065,-0.69678 1.3668749,1.3668749 0 0 0 0.74609,-0.31103 1.5187499,1.5187499 0 0 0 0.28321,0.6538 1.5187499,1.5187499 0 0 0 -0.61865,0.35401 z m -6.08545,-0.45996 a 0.80712592,0.80712592 0 0 0 0.77734,-0.55176 0.80712592,0.80712592 0 0 0 -0.51025,-1.021 0.80712592,0.80712592 0 0 0 -1.021,0.51075 0.80712592,0.80712592 0 0 0 0.51025,1.0205 0.80712592,0.80712592 0 0 0 0.24366,0.0415 z m -7.88135,-0.37842 a 0.42893983,0.42893983 0 0 0 0.39453,-0.29297 0.42893983,0.42893983 0 0 0 -0.27148,-0.54248 0.42893983,0.42893983 0 0 0 -0.54249,0.271 0.42893983,0.42893983 0 0 0 0.271,0.54296 0.42893983,0.42893983 0 0 0 0.14844,0.0215 z m 5.52197,-0.56543 a 0.653772,0.653772 0 0 0 0.61963,-0.44678 0.653772,0.653772 0 0 0 -0.41357,-0.82715 0.653772,0.653772 0 0 0 -0.82666,0.41358 0.653772,0.653772 0 0 0 0.41308,0.82666 0.653772,0.653772 0 0 0 0.20752,0.0337 z m -2.35351,-0.91504 a 0.52955532,0.52955532 0 0 0 0.48339,-0.36182 0.52955532,0.52955532 0 0 0 -0.33496,-0.66992 0.52955532,0.52955532 0 0 0 -0.66943,0.33496 0.52955532,0.52955532 0 0 0 0.33496,0.66992 0.52955532,0.52955532 0 0 0 0.18604,0.0269 z m 11.58837,-0.0532 a 1.3668749,1.3668749 0 0 0 -0.28027,-0.56055 1.5187499,1.5187499 0 0 0 0.6543,-0.2832 1.5187499,1.5187499 0 0 0 0.24512,0.49023 1.5187499,1.5187499 0 0 0 -0.61915,0.35352 z m -6.08789,-0.27002 a 0.9964518,0.9964518 0 0 0 0.95996,-0.68164 0.9964518,0.9964518 0 0 0 -0.63037,-1.26026 0.9964518,0.9964518 0 0 0 -1.26025,0.63037 0.9964518,0.9964518 0 0 0 0.63037,1.26026 0.9964518,0.9964518 0 0 0 0.30029,0.0513 z m 3.61573,-0.16602 a 1.2301874,1.2301874 0 0 0 -0.52442,-1.04785 1.3668749,1.3668749 0 0 0 0.96094,-0.31445 1.5187499,1.5187499 0 0 0 0.3916,0.78271 1.3668749,1.3668749 0 0 0 -0.82812,0.57959 z m -11.49171,-0.354 a 0.47659978,0.47659978 0 0 0 0.43702,-0.32569 0.47659978,0.47659978 0 0 0 -0.30127,-0.60302 0.47659978,0.47659978 0 0 0 -0.60303,0.30127 0.47659978,0.47659978 0 0 0 0.30176,0.60302 0.47659978,0.47659978 0 0 0 0.16552,0.0244 z m 5.50733,-0.45996 a 0.80712592,0.80712592 0 0 0 0.77734,-0.55176 0.80712592,0.80712592 0 0 0 -0.51025,-1.021 0.80712592,0.80712592 0 0 0 -1.021,0.51026 0.80712592,0.80712592 0 0 0 0.51026,1.02099 0.80712592,0.80712592 0 0 0 0.24365,0.0415 z m -7.88233,-0.42139 a 0.38604585,0.38604585 0 0 0 0.3545,-0.26367 0.38604585,0.38604585 0 0 0 -0.24414,-0.48828 0.38604585,0.38604585 0 0 0 -0.48829,0.24414 0.38604585,0.38604585 0 0 0 0.24415,0.48828 0.38604585,0.38604585 0 0 0 0.13378,0.0195 z m 5.52296,-0.52246 a 0.653772,0.653772 0 0 0 0.61963,-0.44727 0.653772,0.653772 0 0 0 -0.41358,-0.82666 0.653772,0.653772 0 0 0 -0.82715,0.41309 0.653772,0.653772 0 0 0 0.41358,0.82715 0.653772,0.653772 0 0 0 0.20752,0.0337 z m 5.54834,-0.44775 a 0.9964518,0.9964518 0 0 0 0.0122,-5e-4 0.9964518,0.9964518 0 0 0 0.91796,-0.68116 0.9964518,0.9964518 0 0 0 -0.62988,-1.26025 0.9964518,0.9964518 0 0 0 -1.26074,0.62988 0.9964518,0.9964518 0 0 0 0.63037,1.26074 0.9964518,0.9964518 0 0 0 0.33008,0.0513 z m -7.90186,-0.46729 a 0.52955532,0.52955532 0 0 0 0.4834,-0.36182 0.52955532,0.52955532 0 0 0 -0.33496,-0.66992 0.52955532,0.52955532 0 0 0 -0.66992,0.33496 0.52955532,0.52955532 0 0 0 0.33495,0.66993 0.52955532,0.52955532 0 0 0 0.18653,0.0268 z m 11.58838,-0.0532 a 1.3668749,1.3668749 0 0 0 -0.41065,-0.69678 1.3668749,1.3668749 0 0 0 0.74658,-0.31152 1.5187499,1.5187499 0 0 0 0.28321,0.65478 1.5187499,1.5187499 0 0 0 -0.61914,0.35352 z m -6.06885,-0.45947 a 0.80712592,0.80712592 0 0 0 0.0215,-5e-4 0.80712592,0.80712592 0 0 0 0.73975,-0.55176 0.80712592,0.80712592 0 0 0 -0.51025,-1.021 0.80712592,0.80712592 0 0 0 -1.021,0.51075 0.80712592,0.80712592 0 0 0 0.51026,1.02099 0.80712592,0.80712592 0 0 0 0.25976,0.0415 z m -7.89746,-0.37842 a 0.42893983,0.42893983 0 0 0 0.39404,-0.29346 0.42893983,0.42893983 0 0 0 -0.27099,-0.54248 0.42893983,0.42893983 0 0 0 -0.54249,0.27149 0.42893983,0.42893983 0 0 0 0.271,0.54248 0.42893983,0.42893983 0 0 0 0.14844,0.022 z m 5.52197,-0.56592 a 0.653772,0.653772 0 0 0 0.61963,-0.44678 0.653772,0.653772 0 0 0 -0.41357,-0.8271402 0.653772,0.653772 0 0 0 -0.82715,0.41357 0.653772,0.653772 0 0 0 0.41357,0.8271502 0.653772,0.653772 0 0 0 0.20752,0.0332 z m 5.51905,-0.44775 a 0.9964518,0.9964518 0 0 0 0.95947,-0.6811502 0.9964518,0.9964518 0 0 0 -0.62988,-1.26075 0.9964518,0.9964518 0 0 0 -1.26075,0.63037 0.9964518,0.9964518 0 0 0 0.63038,1.2602602 0.9964518,0.9964518 0 0 0 0.30078,0.0513 z M 397.0741,-2.920574 a 0.52955532,0.52955532 0 0 0 0.48291,-0.3623 0.52955532,0.52955532 0 0 0 -0.33496,-0.66944 0.52955532,0.52955532 0 0 0 -0.66944,0.33496 0.52955532,0.52955532 0 0 0 0.33447,0.66944 0.52955532,0.52955532 0 0 0 0.15625,0.0273 0.52955532,0.52955532 0 0 0 0.0308,0 z m 11.58789,-0.0532 a 1.3668749,1.3668749 0 0 0 -0.41065,-0.69678 1.3668749,1.3668749 0 0 0 0.74658,-0.31103 1.5187499,1.5187499 0 0 0 0.2837,0.6543 1.5187499,1.5187499 0 0 0 -0.61963,0.35351 z m -6.06885,-0.45947 a 0.80712592,0.80712592 0 0 0 0.0215,-5e-4 0.80712592,0.80712592 0 0 0 0.73975,-0.55176 0.80712592,0.80712592 0 0 0 -0.51026,-1.02099 0.80712592,0.80712592 0 0 0 -1.02099,0.51074 0.80712592,0.80712592 0 0 0 0.51025,1.02099 0.80712592,0.80712592 0 0 0 0.25977,0.0415 z m -7.89746,-0.37891 a 0.42893983,0.42893983 0 0 0 0.39453,-0.29297 0.42893983,0.42893983 0 0 0 -0.27148,-0.54248 0.42893983,0.42893983 0 0 0 -0.54249,0.27149 0.42893983,0.42893983 0 0 0 0.271,0.54248 0.42893983,0.42893983 0 0 0 0.14844,0.0215 z m 5.52197,-0.56543 a 0.653772,0.653772 0 0 0 0.61963,-0.44677 0.653772,0.653772 0 0 0 -0.41357,-0.82715 0.653772,0.653772 0 0 0 -0.82666,0.41357 0.653772,0.653772 0 0 0 0.41308,0.82715 0.653772,0.653772 0 0 0 0.20752,0.0332 z m -2.35351,-0.91504 a 0.52955532,0.52955532 0 0 0 0.48339,-0.36181 0.52955532,0.52955532 0 0 0 -0.33496,-0.66992 0.52955532,0.52955532 0 0 0 -0.66943,0.33496 0.52955532,0.52955532 0 0 0 0.33496,0.66992 0.52955532,0.52955532 0 0 0 0.18604,0.0269 z m 11.58837,-0.0532 a 1.3668749,1.3668749 0 0 0 -0.28027,-0.56054 1.5187499,1.5187499 0 0 0 0.6543,-0.28321 1.5187499,1.5187499 0 0 0 0.24512,0.49024 1.5187499,1.5187499 0 0 0 -0.61915,0.35351 z m -6.08789,-0.27002 a 0.9964518,0.9964518 0 0 0 0.95996,-0.68164 0.9964518,0.9964518 0 0 0 -0.63037,-1.26025 0.9964518,0.9964518 0 0 0 -1.26025,0.63037 0.9964518,0.9964518 0 0 0 0.63037,1.26025 0.9964518,0.9964518 0 0 0 0.30029,0.0513 z m 3.61573,-0.16601 a 1.2301874,1.2301874 0 0 0 -0.52442,-1.04785 1.3668749,1.3668749 0 0 0 0.96094,-0.31446 1.5187499,1.5187499 0 0 0 0.3916,0.78272 1.3668749,1.3668749 0 0 0 -0.82812,0.57959 z m -11.4917,-0.35413 a 0.47659978,0.47659978 0 0 0 0.43701,-0.32568 0.47659978,0.47659978 0 0 0 -0.30127,-0.60303 0.47659978,0.47659978 0 0 0 -0.60303,0.30127 0.47659978,0.47659978 0 0 0 0.30176,0.60303 0.47659978,0.47659978 0 0 0 0.16553,0.0244 z m 5.50732,-0.45996 a 0.80712592,0.80712592 0 0 0 0.77734,-0.55175 0.80712592,0.80712592 0 0 0 -0.51025,-1.021 0.80712592,0.80712592 0 0 0 -1.021,0.51025 0.80712592,0.80712592 0 0 0 0.51026,1.021 0.80712592,0.80712592 0 0 0 0.24365,0.0415 z m -7.88232,-0.42138 a 0.38604585,0.38604585 0 0 0 0.35449,-0.26368 0.38604585,0.38604585 0 0 0 -0.24414,-0.48828 0.38604585,0.38604585 0 0 0 -0.48828,0.24414 0.38604585,0.38604585 0 0 0 0.24414,0.48829 0.38604585,0.38604585 0 0 0 0.13379,0.0195 z m 5.52295,-0.52246 a 0.653772,0.653772 0 0 0 0.61963,-0.44727 0.653772,0.653772 0 0 0 -0.41358,-0.82666 0.653772,0.653772 0 0 0 -0.82715,0.41357 0.653772,0.653772 0 0 0 0.41358,0.82666 0.653772,0.653772 0 0 0 0.20752,0.0337 z m 5.54834,-0.44776 a 0.9964518,0.9964518 0 0 0 0.0122,-5e-4 0.9964518,0.9964518 0 0 0 0.91796,-0.68115 0.9964518,0.9964518 0 0 0 -0.62988,-1.26025 0.9964518,0.9964518 0 0 0 -1.26074,0.63037 0.9964518,0.9964518 0 0 0 0.63037,1.26025 0.9964518,0.9964518 0 0 0 0.33008,0.0513 z m -7.90186,-0.46728 a 0.52955532,0.52955532 0 0 0 0.4834,-0.36182 0.52955532,0.52955532 0 0 0 -0.33496,-0.66992 0.52955532,0.52955532 0 0 0 -0.66992,0.33496 0.52955532,0.52955532 0 0 0 0.33496,0.66992 0.52955532,0.52955532 0 0 0 0.18652,0.0269 z m 11.58838,-0.0532 a 1.3668749,1.3668749 0 0 0 -0.41016,-0.69629 1.3668749,1.3668749 0 0 0 0.7461,-0.31153 1.5187499,1.5187499 0 0 0 0.2832,0.6543 1.5187499,1.5187499 0 0 0 -0.61914,0.35352 z m -6.08496,-0.45948 a 0.80712592,0.80712592 0 0 0 0.77734,-0.55175 0.80712592,0.80712592 0 0 0 -0.51025,-1.021 0.80712592,0.80712592 0 0 0 -1.021,0.51025 0.80712592,0.80712592 0 0 0 0.51026,1.021 0.80712592,0.80712592 0 0 0 0.24365,0.0415 z m -7.88135,-0.37841 a 0.42893983,0.42893983 0 0 0 0.39404,-0.29297 0.42893983,0.42893983 0 0 0 -0.27099,-0.54297 0.42893983,0.42893983 0 0 0 -0.54248,0.27148 0.42893983,0.42893983 0 0 0 0.27099,0.54248 0.42893983,0.42893983 0 0 0 0.14844,0.022 z m 5.52197,-0.56543 a 0.653772,0.653772 0 0 0 0.61963,-0.44727 0.653772,0.653772 0 0 0 -0.41357,-0.82715 0.653772,0.653772 0 0 0 -0.82715,0.41358 0.653772,0.653772 0 0 0 0.41357,0.82715 0.653772,0.653772 0 0 0 0.20752,0.0337 z m 5.54834,-0.44776 a 0.9964518,0.9964518 0 0 0 0.0127,-5e-4 0.9964518,0.9964518 0 0 0 0.91748,-0.68115 0.9964518,0.9964518 0 0 0 -0.33886,-1.10547 h -1.21338 a 0.9964518,0.9964518 0 0 0 -0.33838,0.4751 0.9964518,0.9964518 0 0 0 0.63037,1.26074 0.9964518,0.9964518 0 0 0 0.33008,0.0513 z m -7.90136,-0.46728 a 0.52955532,0.52955532 0 0 0 0.48291,-0.36182 0.52955532,0.52955532 0 0 0 -0.33496,-0.66992 0.52955532,0.52955532 0 0 0 -0.66944,0.33496 0.52955532,0.52955532 0 0 0 0.33447,0.66943 0.52955532,0.52955532 0 0 0 0.15625,0.0273 0.52955532,0.52955532 0 0 0 0.0308,0 z m 11.58789,-0.0532 a 1.3668749,1.3668749 0 0 0 -0.41065,-0.69678 1.3668749,1.3668749 0 0 0 0.74658,-0.31103 1.5187499,1.5187499 0 0 0 0.2837,0.65429 1.5187499,1.5187499 0 0 0 -0.61963,0.35352 z m -6.06885,-0.45947 a 0.80712592,0.80712592 0 0 0 0.0215,-5e-4 0.80712592,0.80712592 0 0 0 0.73975,-0.55176 0.80712592,0.80712592 0 0 0 0.0415,-0.25489 h -1.61428 a 0.80712592,0.80712592 0 0 0 0.55175,0.76563 0.80712592,0.80712592 0 0 0 0.25977,0.0415 z m -7.89746,-0.37842 a 0.42893983,0.42893983 0 0 0 0.39453,-0.29346 0.42893983,0.42893983 0 0 0 0.022,-0.13525 h -0.85791 a 0.42893983,0.42893983 0 0 0 0.29297,0.40673 0.42893983,0.42893983 0 0 0 0.14844,0.022 z"
       inkscape:connector-curvature="0" />
  </g>
</svg>
