<?xml version="1.0" encoding="UTF-8" standalone="no"?>
<svg
   xmlns:dc="http://purl.org/dc/elements/1.1/"
   xmlns:cc="http://creativecommons.org/ns#"
   xmlns:rdf="http://www.w3.org/1999/02/22-rdf-syntax-ns#"
   xmlns:svg="http://www.w3.org/2000/svg"
   xmlns="http://www.w3.org/2000/svg"
   xmlns:sodipodi="http://sodipodi.sourceforge.net/DTD/sodipodi-0.dtd"
   xmlns:inkscape="http://www.inkscape.org/namespaces/inkscape"
   inkscape:version="1.0beta1 (fe3e306, 2019-09-17)"
   sodipodi:docname="bell.svg"
   id="svg6"
   version="1.1"
   viewBox="0 0 24 24"
   role="img">
  <metadata
     id="metadata12">
    <rdf:RDF>
      <cc:Work
         rdf:about="">
        <dc:format>image/svg+xml</dc:format>
        <dc:type
           rdf:resource="http://purl.org/dc/dcmitype/StillImage" />
        <dc:title>Facebook icon</dc:title>
      </cc:Work>
    </rdf:RDF>
  </metadata>
  <defs
     id="defs10" />
  <sodipodi:namedview
     inkscape:snap-intersection-paths="true"
     inkscape:current-layer="svg6"
     inkscape:cy="12.488914"
     inkscape:cx="3.9621195"
     inkscape:zoom="15.729167"
     showgrid="false"
     id="namedview8"
     inkscape:window-height="480"
     inkscape:window-width="640"
     inkscape:pageshadow="2"
     inkscape:pageopacity="0"
     guidetolerance="10"
     gridtolerance="10"
     objecttolerance="10"
     borderopacity="1"
     inkscape:document-rotation="0"
     bordercolor="#666666"
     pagecolor="#2b2b2b" />
  <title
     id="title2">Subscribe icon</title>
  <path
     d="M 12 3.7910156 C 7.708205 3.7910156 7.2463732 6.5704809 6.1914062 10.689453 C 5.1364393 14.808425 4.934496 15.306423 2.109375 17.757812 L 2.109375 19.330078 L 9.4160156 19.330078 A 2.5849202 2.5849202 0 0 0 9.4160156 19.353516 A 2.5849202 2.5849202 0 0 0 12 21.9375 A 2.5849202 2.5849202 0 0 0 14.583984 19.353516 A 2.5849202 2.5849202 0 0 0 14.583984 19.330078 L 21.890625 19.330078 L 21.890625 17.757812 C 19.065504 15.306423 18.863561 14.808425 17.808594 10.689453 C 16.753627 6.5704809 16.291795 3.7910156 12 3.7910156 z "
     style="vector-effect:non-scaling-stroke;fill:none;stroke:#ffffff;stroke-width:1;stroke-miterlimit:4;stroke-dasharray:none;stroke-opacity:1;stop-color:#000000"
     id="path857" />
</svg>
