<?xml version="1.0" encoding="UTF-8" standalone="no"?>
<svg
   xmlns:dc="http://purl.org/dc/elements/1.1/"
   xmlns:cc="http://creativecommons.org/ns#"
   xmlns:rdf="http://www.w3.org/1999/02/22-rdf-syntax-ns#"
   xmlns:svg="http://www.w3.org/2000/svg"
   xmlns="http://www.w3.org/2000/svg"
   xmlns:xlink="http://www.w3.org/1999/xlink"
   xmlns:sodipodi="http://sodipodi.sourceforge.net/DTD/sodipodi-0.dtd"
   xmlns:inkscape="http://www.inkscape.org/namespaces/inkscape"
   id="svg721"
   sodipodi:version="0.32"
   inkscape:version="1.0.1 (3bc2e813f5, 2020-09-07)"
   width="512"
   height="512"
   sodipodi:docname="hellcat.svg"
   inkscape:output_extension="org.inkscape.output.svg.inkscape"
   version="1.0"
   inkscape:export-filename="D:\scratch\skrapion.github.io\static\hellcat.png"
   inkscape:export-xdpi="36"
   inkscape:export-ydpi="36">
  <metadata
     id="metadata45">
    <rdf:RDF>
      <cc:Work
         rdf:about="">
        <dc:format>image/svg+xml</dc:format>
        <dc:type
           rdf:resource="http://purl.org/dc/dcmitype/StillImage" />
        <dc:title></dc:title>
      </cc:Work>
    </rdf:RDF>
  </metadata>
  <defs
     id="defs723">
    <inkscape:perspective
       sodipodi:type="inkscape:persp3d"
       inkscape:vp_x="0 : 398.6243 : 1"
       inkscape:vp_y="0 : 1000 : 0"
       inkscape:vp_z="800 : 398.6243 : 1"
       inkscape:persp3d-origin="400 : 298.6243 : 1"
       id="perspective47" />
    <defs
       id="defs3">
      <linearGradient
         id="linearGradient20">
        <stop
           style="stop-color:#000;stop-opacity:1;"
           offset="0"
           id="stop21" />
        <stop
           style="stop-color:#fff;stop-opacity:1;"
           offset="1"
           id="stop22" />
      </linearGradient>
      <linearGradient
         xlink:href="#linearGradient20"
         id="linearGradient23" />
    </defs>
    <sodipodi:namedview
       id="namedview766"
       gridtolerance="5.000000"
       guidetolerance="5.000000"
       guidecolor="#0000ff"
       guideopacity="0.494118"
       guidehicolor="#ff0000"
       guidehiopacity="0.494118"
       snaptoguides="true"
       inkscape:zoom="0.77719483"
       inkscape:cx="645.30813721"
       inkscape:cy="222.88798116"
       inkscape:window-width="1024"
       inkscape:window-height="712"
       inkscape:window-x="-4"
       inkscape:window-y="-4">
      <sodipodi:guide
         orientation="horizontal"
         position="104.608579"
         id="sodipodi:guide57" />
      <sodipodi:guide
         orientation="vertical"
         position="209.055303"
         id="sodipodi:guide59" />
      <sodipodi:guide
         orientation="vertical"
         position="226.055303"
         id="sodipodi:guide60" />
      <sodipodi:guide
         orientation="horizontal"
         position="342.608579"
         id="sodipodi:guide61" />
      <sodipodi:guide
         orientation="horizontal"
         position="112.608579"
         id="sodipodi:guide62" />
      <sodipodi:guide
         orientation="vertical"
         position="328.055303"
         id="sodipodi:guide63" />
      <sodipodi:guide
         orientation="vertical"
         position="343.055303"
         id="sodipodi:guide64" />
      <sodipodi:guide
         orientation="horizontal"
         position="537.608579"
         id="sodipodi:guide66" />
      <sodipodi:guide
         orientation="vertical"
         position="542.055303"
         id="sodipodi:guide67" />
      <sodipodi:guide
         orientation="vertical"
         position="559.055303"
         id="sodipodi:guide68" />
      <sodipodi:guide
         orientation="horizontal"
         position="324.608579"
         id="sodipodi:guide69" />
      <sodipodi:guide
         orientation="horizontal"
         position="284.608579"
         id="sodipodi:guide70" />
      <sodipodi:guide
         orientation="vertical"
         position="743.040541"
         id="sodipodi:guide71" />
      <sodipodi:guide
         orientation="vertical"
         position="761.237452"
         id="sodipodi:guide84" />
      <sodipodi:guide
         orientation="horizontal"
         position="122.964468"
         id="sodipodi:guide35" />
      <sodipodi:guide
         orientation="vertical"
         position="882.550193"
         id="sodipodi:guide36" />
      <sodipodi:guide
         orientation="vertical"
         position="898.725225"
         id="sodipodi:guide37" />
      <sodipodi:guide
         orientation="vertical"
         position="1103.287832"
         id="sodipodi:guide79" />
      <sodipodi:guide
         orientation="vertical"
         position="1121.253525"
         id="sodipodi:guide80" />
      <sodipodi:guide
         orientation="horizontal"
         position="20.432930"
         id="sodipodi:guide72" />
      <inkscape:grid
         id="GridFromPre046Settings"
         type="xygrid"
         originx="0px"
         originy="0.000000"
         spacingx="2.834646"
         spacingy="2.834646"
         color="#3f3fff"
         empcolor="#0000ff"
         opacity="1.000000"
         empopacity="0.4"
         empspacing="5" />
    </sodipodi:namedview>
  </defs>
  <sodipodi:namedview
     id="base"
     pagecolor="#ffffff"
     bordercolor="#666666"
     borderopacity="1.0"
     inkscape:pageopacity="1"
     inkscape:pageshadow="2"
     inkscape:zoom="0.90509668"
     inkscape:cx="509.37475"
     inkscape:cy="232.57262"
     inkscape:window-width="1920"
     inkscape:window-height="1017"
     inkscape:window-x="-8"
     inkscape:window-y="-8"
     showgrid="false"
     inkscape:current-layer="g832"
     inkscape:document-rotation="0"
     fit-margin-top="0"
     fit-margin-left="0"
     fit-margin-right="0"
     fit-margin-bottom="0"
     showguides="true"
     inkscape:guide-bbox="true"
     inkscape:pagecheckerboard="false"
     inkscape:window-maximized="1">
    <sodipodi:guide
       position="255.96484,223.21915"
       orientation="1,0"
       id="guide859" />
  </sodipodi:namedview>
  <g
     id="g832"
     transform="matrix(0.79287813,0,0,0.79287813,106.0585,-24.932332)">
    <path
       style="fill:#ff0000;fill-rule:evenodd;stroke:#000000;stroke-width:1.00015371;stroke-linecap:butt;stroke-linejoin:miter;stroke-opacity:1;stroke-miterlimit:4;stroke-dasharray:none"
       d="m 300.26976,414.67756 c 45.28794,39.17796 58.17193,77.76191 63.43092,90.1909 3.014,9.36398 4.936,14.12398 -0.375,19.09097 -7.90699,7.39199 -39.07695,16.38398 -52.12293,42.16095 -13.04899,25.77697 -23.86598,44.54695 -38.18496,58.07093 -14.31898,13.52298 -47.72894,23.86397 -55.42193,36.71596 -7.69299,12.85198 -15.57398,15.78598 -20.93498,15.78598 -10.56398,0 -9.63298,0 -15.00398,0 -5.37099,0 -13.25198,-2.934 -20.94497,-15.78598 C 153.01894,648.05528 119.60898,637.71429 105.29,624.19131 90.971407,610.66733 80.15562,591.89735 67.106836,566.12038 54.058052,540.34341 22.88619,531.35142 14.981299,523.95943 9.668806,518.99244 11.591603,514.23244 14.6049,504.86846 c 5.260393,-12.42899 20.130175,-50.79694 63.432823,-90.1909 3.474996,-4.21299 11.574986,-17.34997 0.858199,-71.68391 -6.624492,-41.32595 54.103038,-95.65988 48.560048,-150.22882 6.48899,21.16298 15.09498,21.94698 2.302,43.99095 -36.335866,56.90793 -20.28098,95.33189 -10.34699,96.66588 14.78998,-0.535 -5.211,-68.41191 27.79796,-98.46788 12.78099,-13.64498 89.2589,-36.25795 99.39188,-121.57285 13.81099,95.58488 -61.29392,164.6368 -40.15095,171.73279 28.21397,8.91899 17.18398,-38.16795 41.20295,-81.4439 28.88397,-49.62894 70.30492,-42.55095 140.54283,-171.985992 -65.08292,133.028042 -43.72294,179.133982 -65.56392,210.157942 -22.82997,33.11796 -76.8639,50.84894 -60.68892,69.28492 8.25699,11.27499 46.57994,-39.80895 63.42892,-58.16393 26.98597,-30.50796 66.88692,-31.44696 86.37989,-64.84892 -33.04796,52.25994 -72.71691,58.40893 -80.0259,94.90388 -21.90397,112.68487 -60.27293,105.32788 -31.45596,131.65984 z M 285.40478,47.474809 c -1.298,19.694276 2.33499,17.500278 1.103,22.610172 -2.343,8.66409 -34.37496,11.396786 -39.70596,32.535959 -0.561,-15.988879 -4.10699,-16.930778 -3.30799,-20.955873 1.425,-6.196592 39.70595,-15.257081 41.91095,-34.190258 z M 150.29594,200.78182 c 9.83299,-30.52396 -4.48999,-44.27794 -4.33299,-52.48493 1.59799,-10.40299 3.65399,-2.136 16.40998,-35.29296 -11.20199,36.51396 3.89699,50.28494 1.34799,57.40793 -1.96699,6.59699 -3.09699,2.465 -13.42498,30.36996 z m -41.53095,373.43355 c 29.20397,16.40298 36.31196,18.03198 53.91494,21.33198 3.78499,11.94798 6.86099,14.31198 10.64598,21.29297 1.42,-9.70099 1.42,-11.24199 3.549,-18.80798 8.51799,0.353 16.03898,0.353 24.55597,0 2.13,7.56599 2.129,9.10699 3.54899,18.80798 3.786,-6.98099 6.861,-9.34499 10.64599,-21.29297 17.60298,-3.3 24.71197,-4.929 53.91494,-21.33198 -35.72796,32.24896 -50.36794,49.96594 -64.09593,80.6179 -0.553,-4.62099 -1.81499,-7.11499 -3.78699,-11.73898 -1.02,9.10399 -1.733,13.62598 -3.549,18.62798 -8.64099,3.32799 -9.27099,3.32799 -17.91198,0 -1.81599,-5.002 -2.52799,-9.52399 -3.54899,-18.62798 -1.972,4.62399 -3.234,7.11799 -3.786,11.73898 -13.72898,-30.65196 -26.78196,-48.36894 -64.09692,-80.6179 z M 265.9408,506.88845 c 1.652,-0.789 9.11099,-3.55699 10.53899,-3.42999 1.386,0.089 10.73799,8.13299 10.53999,9.70799 -0.619,6.45999 -5.077,13.58098 -19.07198,21.58297 4.34999,-8.53399 3.08499,-21.55097 -2.007,-27.86097 z m -153.57581,0 c -1.652,-0.789 -9.10999,-3.55699 -10.53899,-3.42999 -1.386,0.089 -10.738193,8.13299 -10.539293,9.70799 0.618199,6.45999 5.076094,13.58098 19.071283,21.58297 -4.349,-8.53399 -3.085,-21.55097 2.007,-27.86097 z m 8.03099,30.37197 c 17.51298,1.06899 28.12296,1.93099 29.35196,-1.006 1.288,-2.548 -15.13598,-14.48098 -28.34796,-24.85697 3.01099,11.54398 2.62099,14.08298 -1.004,25.86297 z m 137.51383,0 c -17.51298,1.06899 -28.12297,1.93099 -29.35196,-1.006 -1.288,-2.548 15.13698,-14.48098 28.34796,-24.85697 -3.01099,11.54398 -2.621,14.08298 1.004,25.86297 z"
       id="path833" />
  </g>
</svg>
