<?xml version="1.0" encoding="UTF-8" standalone="no"?>
<svg
   xmlns:dc="http://purl.org/dc/elements/1.1/"
   xmlns:cc="http://creativecommons.org/ns#"
   xmlns:rdf="http://www.w3.org/1999/02/22-rdf-syntax-ns#"
   xmlns:svg="http://www.w3.org/2000/svg"
   xmlns="http://www.w3.org/2000/svg"
   xmlns:xlink="http://www.w3.org/1999/xlink"
   xmlns:sodipodi="http://sodipodi.sourceforge.net/DTD/sodipodi-0.dtd"
   xmlns:inkscape="http://www.inkscape.org/namespaces/inkscape"
   id="svg721"
   sodipodi:version="0.32"
   inkscape:version="1.0.1 (3bc2e813f5, 2020-09-07)"
   width="231.5833"
   height="128.36723"
   sodipodi:docname="hellcat-crop.svg"
   inkscape:output_extension="org.inkscape.output.svg.inkscape"
   version="1.0"
   inkscape:export-filename="C:\Users\Skorpion\Pictures\hellcat.png"
   inkscape:export-xdpi="139.34056"
   inkscape:export-ydpi="139.34056">
  <metadata
     id="metadata45">
    <rdf:RDF>
      <cc:Work
         rdf:about="">
        <dc:format>image/svg+xml</dc:format>
        <dc:type
           rdf:resource="http://purl.org/dc/dcmitype/StillImage" />
        <dc:title></dc:title>
      </cc:Work>
    </rdf:RDF>
  </metadata>
  <defs
     id="defs723">
    <inkscape:perspective
       sodipodi:type="inkscape:persp3d"
       inkscape:vp_x="0 : 14.991531 : 1"
       inkscape:vp_y="0 : 1000 : 0"
       inkscape:vp_z="800 : 14.991531 : 1"
       inkscape:persp3d-origin="400 : -85.008469 : 1"
       id="perspective47" />
    <defs
       id="defs3">
      <linearGradient
         id="linearGradient20">
        <stop
           style="stop-color:#000;stop-opacity:1;"
           offset="0"
           id="stop21" />
        <stop
           style="stop-color:#fff;stop-opacity:1;"
           offset="1"
           id="stop22" />
      </linearGradient>
      <linearGradient
         xlink:href="#linearGradient20"
         id="linearGradient23" />
    </defs>
    <sodipodi:namedview
       id="namedview766"
       gridtolerance="5.000000"
       guidetolerance="5.000000"
       guidecolor="#0000ff"
       guideopacity="0.494118"
       guidehicolor="#ff0000"
       guidehiopacity="0.494118"
       snaptoguides="true"
       inkscape:zoom="0.77719483"
       inkscape:cx="645.30813721"
       inkscape:cy="222.88798116"
       inkscape:window-width="1024"
       inkscape:window-height="712"
       inkscape:window-x="-4"
       inkscape:window-y="-4">
      <sodipodi:guide
         orientation="horizontal"
         position="104.608579"
         id="sodipodi:guide57" />
      <sodipodi:guide
         orientation="vertical"
         position="209.055303"
         id="sodipodi:guide59" />
      <sodipodi:guide
         orientation="vertical"
         position="226.055303"
         id="sodipodi:guide60" />
      <sodipodi:guide
         orientation="horizontal"
         position="342.608579"
         id="sodipodi:guide61" />
      <sodipodi:guide
         orientation="horizontal"
         position="112.608579"
         id="sodipodi:guide62" />
      <sodipodi:guide
         orientation="vertical"
         position="328.055303"
         id="sodipodi:guide63" />
      <sodipodi:guide
         orientation="vertical"
         position="343.055303"
         id="sodipodi:guide64" />
      <sodipodi:guide
         orientation="horizontal"
         position="537.608579"
         id="sodipodi:guide66" />
      <sodipodi:guide
         orientation="vertical"
         position="542.055303"
         id="sodipodi:guide67" />
      <sodipodi:guide
         orientation="vertical"
         position="559.055303"
         id="sodipodi:guide68" />
      <sodipodi:guide
         orientation="horizontal"
         position="324.608579"
         id="sodipodi:guide69" />
      <sodipodi:guide
         orientation="horizontal"
         position="284.608579"
         id="sodipodi:guide70" />
      <sodipodi:guide
         orientation="vertical"
         position="743.040541"
         id="sodipodi:guide71" />
      <sodipodi:guide
         orientation="vertical"
         position="761.237452"
         id="sodipodi:guide84" />
      <sodipodi:guide
         orientation="horizontal"
         position="122.964468"
         id="sodipodi:guide35" />
      <sodipodi:guide
         orientation="vertical"
         position="882.550193"
         id="sodipodi:guide36" />
      <sodipodi:guide
         orientation="vertical"
         position="898.725225"
         id="sodipodi:guide37" />
      <sodipodi:guide
         orientation="vertical"
         position="1103.287832"
         id="sodipodi:guide79" />
      <sodipodi:guide
         orientation="vertical"
         position="1121.253525"
         id="sodipodi:guide80" />
      <sodipodi:guide
         orientation="horizontal"
         position="20.432930"
         id="sodipodi:guide72" />
      <inkscape:grid
         id="GridFromPre046Settings"
         type="xygrid"
         originx="0px"
         originy="0.000000"
         spacingx="2.834646"
         spacingy="2.834646"
         color="#3f3fff"
         empcolor="#0000ff"
         opacity="1.000000"
         empopacity="0.4"
         empspacing="5" />
    </sodipodi:namedview>
  </defs>
  <sodipodi:namedview
     id="base"
     pagecolor="#000000"
     bordercolor="#666666"
     borderopacity="1.0"
     inkscape:pageopacity="0.00000000"
     inkscape:pageshadow="2"
     inkscape:zoom="1.0665527"
     inkscape:cx="68.306561"
     inkscape:cy="-97.001486"
     inkscape:window-width="1920"
     inkscape:window-height="1017"
     inkscape:window-x="-8"
     inkscape:window-y="-8"
     showgrid="false"
     inkscape:current-layer="svg721"
     inkscape:document-rotation="0"
     inkscape:snap-global="false"
     fit-margin-top="0"
     fit-margin-left="0"
     fit-margin-right="0"
     fit-margin-bottom="0"
     inkscape:window-maximized="1" />
  <g
     id="g832"
     transform="matrix(0.629735,0,0,0.629735,-3.9341512,-301.31108)">
    <path
       style="fill:#ff0000;fill-rule:evenodd;stroke:#000000;stroke-width:1;stroke-linecap:butt;stroke-linejoin:miter;stroke-opacity:1"
       d="m 301.157,414.82 c 45.288,39.178 58.172,77.762 63.431,90.191 3.014,9.364 4.936,14.124 -0.375,19.091 -7.907,7.392 -39.077,16.384 -52.123,42.161 -13.049,25.777 -23.866,44.547 -38.185,58.071 -14.319,13.523 -47.729,23.864 -55.422,36.716 -7.693,12.852 -15.574,15.786 -20.935,15.786 -10.564,0 -9.633,0 -15.004,0 -5.371,0 -13.252,-2.934 -20.945,-15.786 -7.693,-12.852 -41.103,-23.193 -55.422,-36.716 C 91.8584,610.81 81.0426,592.04 67.9938,566.263 54.945,540.486 23.7731,531.494 15.8682,524.102 c -5.3125,-4.967 -3.3897,-9.727 -0.3764,-19.091 5.2604,-12.429 20.1302,-50.797 63.4329,-90.191 3.475,-4.213 11.575,-17.35 0.8582,-71.684 -6.6245,-41.326 54.1031,-95.66 48.5601,-150.229 6.489,21.163 15.095,21.947 2.302,43.991 -36.3359,56.908 -20.281,95.332 -10.347,96.666 14.79,-0.535 -5.211,-68.412 27.798,-98.468 12.781,-13.645 89.259,-36.258 99.392,-121.573 13.811,95.585 -61.294,164.637 -40.151,171.733 28.214,8.919 17.184,-38.168 41.203,-81.444 C 277.424,154.183 318.845,161.261 389.083,31.8258 324,164.854 345.36,210.96 323.519,241.984 c -22.83,33.118 -76.864,50.849 -60.689,69.285 8.257,11.275 46.58,-39.809 63.429,-58.164 26.986,-30.508 66.887,-31.447 86.38,-64.849 -33.048,52.26 -72.717,58.409 -80.026,94.904 -21.904,112.685 -60.273,105.328 -31.456,131.66 z M 286.292,47.6168 c -1.298,19.6943 2.335,17.5003 1.103,22.6102 -2.343,8.6641 -34.375,11.3968 -39.706,32.536 -0.561,-15.9889 -4.107,-16.9308 -3.308,-20.9559 1.425,-6.1966 39.706,-15.2571 41.911,-34.1903 z M 151.183,200.924 c 9.833,-30.524 -4.49,-44.278 -4.333,-52.485 1.598,-10.403 3.654,-2.136 16.41,-35.293 -11.202,36.514 3.897,50.285 1.348,57.408 -1.967,6.597 -3.097,2.465 -13.425,30.37 z m -41.531,373.434 c 29.204,16.403 36.312,18.032 53.915,21.332 3.785,11.948 6.861,14.312 10.646,21.293 1.42,-9.701 1.42,-11.242 3.549,-18.808 8.518,0.353 16.039,0.353 24.556,0 2.13,7.566 2.129,9.107 3.549,18.808 3.786,-6.981 6.861,-9.345 10.646,-21.293 17.603,-3.3 24.712,-4.929 53.915,-21.332 -35.728,32.249 -50.368,49.966 -64.096,80.618 -0.553,-4.621 -1.815,-7.115 -3.787,-11.739 -1.02,9.104 -1.733,13.626 -3.549,18.628 -8.641,3.328 -9.271,3.328 -17.912,0 -1.816,-5.002 -2.528,-9.524 -3.549,-18.628 -1.972,4.624 -3.234,7.118 -3.786,11.739 -13.729,-30.652 -26.782,-48.369 -64.097,-80.618 z m 157.176,-67.327 c 1.652,-0.789 9.111,-3.557 10.539,-3.43 1.386,0.089 10.738,8.133 10.54,9.708 -0.619,6.46 -5.077,13.581 -19.072,21.583 4.35,-8.534 3.085,-21.551 -2.007,-27.861 z m -153.576,0 c -1.652,-0.789 -9.11,-3.557 -10.539,-3.43 -1.386,0.089 -10.7382,8.133 -10.5393,9.708 0.6182,6.46 5.0761,13.581 19.0713,21.583 -4.349,-8.534 -3.085,-21.551 2.007,-27.861 z m 8.031,30.372 c 17.513,1.069 28.123,1.931 29.352,-1.006 1.288,-2.548 -15.136,-14.481 -28.348,-24.857 3.011,11.544 2.621,14.083 -1.004,25.863 z m 137.514,0 c -17.513,1.069 -28.123,1.931 -29.352,-1.006 -1.288,-2.548 15.137,-14.481 28.348,-24.857 -3.011,11.544 -2.621,14.083 1.004,25.863 z"
       id="path833" />
  </g>
</svg>
