<?xml version="1.0" encoding="UTF-8" standalone="no"?>
<svg
   xmlns:dc="http://purl.org/dc/elements/1.1/"
   xmlns:cc="http://creativecommons.org/ns#"
   xmlns:rdf="http://www.w3.org/1999/02/22-rdf-syntax-ns#"
   xmlns:svg="http://www.w3.org/2000/svg"
   xmlns="http://www.w3.org/2000/svg"
   xmlns:sodipodi="http://sodipodi.sourceforge.net/DTD/sodipodi-0.dtd"
   xmlns:inkscape="http://www.inkscape.org/namespaces/inkscape"
   inkscape:version="1.0beta1 (fe3e306, 2019-09-17)"
   sodipodi:docname="youtube.svg"
   id="svg6"
   version="1.1"
   viewBox="0 0 24 24"
   role="img">
  <metadata
     id="metadata12">
    <rdf:RDF>
      <cc:Work
         rdf:about="">
        <dc:format>image/svg+xml</dc:format>
        <dc:type
           rdf:resource="http://purl.org/dc/dcmitype/StillImage" />
        <dc:title>YouTube icon</dc:title>
      </cc:Work>
    </rdf:RDF>
  </metadata>
  <defs
     id="defs10" />
  <sodipodi:namedview
     inkscape:current-layer="svg6"
     inkscape:cy="7.3757513"
     inkscape:cx="10.651435"
     inkscape:zoom="15.729167"
     inkscape:pagecheckerboard="false"
     showgrid="false"
     id="namedview8"
     inkscape:window-height="480"
     inkscape:window-width="640"
     inkscape:pageshadow="2"
     inkscape:pageopacity="0"
     guidetolerance="10"
     gridtolerance="10"
     objecttolerance="10"
     borderopacity="1"
     inkscape:document-rotation="0"
     bordercolor="#666666"
     pagecolor="#585858" />
  <title
     id="title2">YouTube icon</title>
  <path
     vector-effect="non-scaling-stroke"
     inkscape:connector-curvature="0"
     style="fill:none;stroke:#ffffff;stroke-width:1px;stroke-opacity:1;"
     id="path4"
     d="M 22.841228,6.5345682 A 2.8359736,2.8359736 0 0 0 20.871985,4.5653255 C 19.108343,4.0928204 12.010393,4.0928204 12.010393,4.0928204 c 0,0 -7.0800312,-0.00943 -8.8615923,0.4725051 A 2.8359736,2.8359736 0 0 0 1.179558,6.5345682 29.469793,29.469793 0 0 0 0.68724733,12.009402 29.469793,29.469793 0 0 0 1.179558,17.463488 2.8359736,2.8359736 0 0 0 3.1488007,19.432731 c 1.7617555,0.473448 8.8615923,0.473448 8.8615923,0.473448 0,0 7.079088,0 8.861592,-0.473448 A 2.8359736,2.8359736 0 0 0 22.841228,17.463488 29.469793,29.469793 0 0 0 23.31279,12.009402 29.469793,29.469793 0 0 0 22.841228,6.5345682 Z M 9.7450093,15.39616 V 8.6122701 l 5.9077277,3.3971319 z" />
</svg>
